<svg xmlns="http://www.w3.org/2000/svg" width="960" height="460" viewBox="0 0 960 460">
<rect width="100%" height="100%" fill="#ffffff"/>
<text x="70" y="22" font-family="Arial" font-size="16" font-weight="700">DOGEUSDT 4h evidence chart</text>
<rect x="70" y="35" width="680" height="330" fill="#fafafa" stroke="#dddddd"/>
<line x1="70" y1="35.00" x2="750" y2="35.00" stroke="#eeeeee"/>
<text x="8" y="39.00" font-family="Arial" font-size="11" fill="#555">0.10681</text>
<line x1="70" y1="117.50" x2="750" y2="117.50" stroke="#eeeeee"/>
<text x="8" y="121.50" font-family="Arial" font-size="11" fill="#555">0.10004</text>
<line x1="70" y1="200.00" x2="750" y2="200.00" stroke="#eeeeee"/>
<text x="8" y="204.00" font-family="Arial" font-size="11" fill="#555">0.09327</text>
<line x1="70" y1="282.50" x2="750" y2="282.50" stroke="#eeeeee"/>
<text x="8" y="286.50" font-family="Arial" font-size="11" fill="#555">0.08650</text>
<line x1="70" y1="365.00" x2="750" y2="365.00" stroke="#eeeeee"/>
<text x="8" y="369.00" font-family="Arial" font-size="11" fill="#555">0.07973</text>
<line x1="79.44" y1="313.21" x2="79.44" y2="329.17" stroke="#16a34a" stroke-width="1.4"/>
<rect x="74.16" y="322.23" width="10.58" height="5.00" fill="#16a34a" opacity="0.82"/>
<line x1="98.33" y1="318.33" x2="98.33" y2="329.42" stroke="#dc2626" stroke-width="1.4"/>
<rect x="93.04" y="322.23" width="10.58" height="4.75" fill="#dc2626" opacity="0.82"/>
<line x1="117.22" y1="319.55" x2="117.22" y2="331.12" stroke="#16a34a" stroke-width="1.4"/>
<rect x="111.93" y="322.59" width="10.58" height="4.39" fill="#16a34a" opacity="0.82"/>
<line x1="136.11" y1="313.45" x2="136.11" y2="323.81" stroke="#16a34a" stroke-width="1.4"/>
<rect x="130.82" y="320.64" width="10.58" height="1.95" fill="#16a34a" opacity="0.82"/>
<line x1="155.00" y1="320.16" x2="155.00" y2="335.75" stroke="#dc2626" stroke-width="1.4"/>
<rect x="149.71" y="320.64" width="10.58" height="2.07" fill="#dc2626" opacity="0.82"/>
<line x1="173.89" y1="322.47" x2="173.89" y2="340.26" stroke="#dc2626" stroke-width="1.4"/>
<rect x="168.60" y="322.71" width="10.58" height="5.85" fill="#dc2626" opacity="0.82"/>
<line x1="192.78" y1="328.32" x2="192.78" y2="353.17" stroke="#dc2626" stroke-width="1.4"/>
<rect x="187.49" y="328.44" width="10.58" height="9.50" fill="#dc2626" opacity="0.82"/>
<line x1="211.67" y1="335.51" x2="211.67" y2="349.40" stroke="#dc2626" stroke-width="1.4"/>
<rect x="206.38" y="337.82" width="10.58" height="3.53" fill="#dc2626" opacity="0.82"/>
<line x1="230.56" y1="340.14" x2="230.56" y2="358.29" stroke="#dc2626" stroke-width="1.4"/>
<rect x="225.27" y="341.23" width="10.58" height="1.83" fill="#dc2626" opacity="0.82"/>
<line x1="249.44" y1="335.99" x2="249.44" y2="347.81" stroke="#16a34a" stroke-width="1.4"/>
<rect x="244.16" y="341.36" width="10.58" height="1.71" fill="#16a34a" opacity="0.82"/>
<line x1="268.33" y1="340.38" x2="268.33" y2="360.12" stroke="#dc2626" stroke-width="1.4"/>
<rect x="263.04" y="341.23" width="10.58" height="5.36" fill="#dc2626" opacity="0.82"/>
<line x1="287.22" y1="336.48" x2="287.22" y2="353.17" stroke="#16a34a" stroke-width="1.4"/>
<rect x="281.93" y="341.36" width="10.58" height="5.24" fill="#16a34a" opacity="0.82"/>
<line x1="306.11" y1="338.55" x2="306.11" y2="351.35" stroke="#dc2626" stroke-width="1.4"/>
<rect x="300.82" y="341.36" width="10.58" height="4.51" fill="#dc2626" opacity="0.82"/>
<line x1="325.00" y1="338.19" x2="325.00" y2="350.98" stroke="#16a34a" stroke-width="1.4"/>
<rect x="319.71" y="340.26" width="10.58" height="5.48" fill="#16a34a" opacity="0.82"/>
<line x1="343.89" y1="321.62" x2="343.89" y2="347.57" stroke="#16a34a" stroke-width="1.4"/>
<rect x="338.60" y="327.71" width="10.58" height="12.55" fill="#16a34a" opacity="0.82"/>
<line x1="362.78" y1="316.62" x2="362.78" y2="336.48" stroke="#16a34a" stroke-width="1.4"/>
<rect x="357.49" y="326.37" width="10.58" height="1.50" fill="#16a34a" opacity="0.82"/>
<line x1="381.67" y1="317.48" x2="381.67" y2="330.88" stroke="#16a34a" stroke-width="1.4"/>
<rect x="376.38" y="321.74" width="10.58" height="4.63" fill="#16a34a" opacity="0.82"/>
<line x1="400.56" y1="246.93" x2="400.56" y2="323.81" stroke="#16a34a" stroke-width="1.4"/>
<rect x="395.27" y="249.61" width="10.58" height="72.25" fill="#16a34a" opacity="0.82"/>
<line x1="419.44" y1="239.99" x2="419.44" y2="263.14" stroke="#16a34a" stroke-width="1.4"/>
<rect x="414.16" y="248.15" width="10.58" height="1.50" fill="#16a34a" opacity="0.82"/>
<line x1="438.33" y1="247.30" x2="438.33" y2="274.95" stroke="#dc2626" stroke-width="1.4"/>
<rect x="433.04" y="248.15" width="10.58" height="18.28" fill="#dc2626" opacity="0.82"/>
<line x1="457.22" y1="263.01" x2="457.22" y2="281.53" stroke="#dc2626" stroke-width="1.4"/>
<rect x="451.93" y="266.43" width="10.58" height="8.04" fill="#dc2626" opacity="0.82"/>
<line x1="476.11" y1="269.23" x2="476.11" y2="282.14" stroke="#dc2626" stroke-width="1.4"/>
<rect x="470.82" y="274.47" width="10.58" height="1.58" fill="#dc2626" opacity="0.82"/>
<line x1="495.00" y1="259.85" x2="495.00" y2="279.34" stroke="#16a34a" stroke-width="1.4"/>
<rect x="489.71" y="267.03" width="10.58" height="8.89" fill="#16a34a" opacity="0.82"/>
<line x1="513.89" y1="263.62" x2="513.89" y2="315.65" stroke="#dc2626" stroke-width="1.4"/>
<rect x="508.60" y="267.16" width="10.58" height="40.94" fill="#dc2626" opacity="0.82"/>
<line x1="532.78" y1="300.17" x2="532.78" y2="312.72" stroke="#16a34a" stroke-width="1.4"/>
<rect x="527.49" y="303.95" width="10.58" height="4.26" fill="#16a34a" opacity="0.82"/>
<line x1="551.67" y1="301.15" x2="551.67" y2="307.73" stroke="#16a34a" stroke-width="1.4"/>
<rect x="546.38" y="303.59" width="10.58" height="1.50" fill="#16a34a" opacity="0.82"/>
<line x1="570.56" y1="301.39" x2="570.56" y2="312.72" stroke="#dc2626" stroke-width="1.4"/>
<rect x="565.27" y="303.46" width="10.58" height="2.19" fill="#dc2626" opacity="0.82"/>
<line x1="589.44" y1="290.43" x2="589.44" y2="307.24" stroke="#16a34a" stroke-width="1.4"/>
<rect x="584.16" y="291.28" width="10.58" height="14.26" fill="#16a34a" opacity="0.82"/>
<line x1="608.33" y1="284.34" x2="608.33" y2="294.94" stroke="#16a34a" stroke-width="1.4"/>
<rect x="603.04" y="287.14" width="10.58" height="4.14" fill="#16a34a" opacity="0.82"/>
<line x1="627.22" y1="262.28" x2="627.22" y2="287.38" stroke="#16a34a" stroke-width="1.4"/>
<rect x="621.93" y="269.11" width="10.58" height="18.03" fill="#16a34a" opacity="0.82"/>
<line x1="646.11" y1="177.12" x2="646.11" y2="272.40" stroke="#16a34a" stroke-width="1.4"/>
<rect x="640.82" y="230.24" width="10.58" height="38.87" fill="#16a34a" opacity="0.82"/>
<line x1="665.00" y1="223.05" x2="665.00" y2="248.39" stroke="#dc2626" stroke-width="1.4"/>
<rect x="659.71" y="230.24" width="10.58" height="13.40" fill="#dc2626" opacity="0.82"/>
<line x1="683.89" y1="218.91" x2="683.89" y2="243.76" stroke="#16a34a" stroke-width="1.4"/>
<rect x="678.60" y="223.90" width="10.58" height="19.74" fill="#16a34a" opacity="0.82"/>
<line x1="702.78" y1="215.13" x2="702.78" y2="236.09" stroke="#dc2626" stroke-width="1.4"/>
<rect x="697.49" y="223.90" width="10.58" height="5.48" fill="#dc2626" opacity="0.82"/>
<line x1="721.67" y1="225.24" x2="721.67" y2="261.19" stroke="#dc2626" stroke-width="1.4"/>
<rect x="716.38" y="229.39" width="10.58" height="9.02" fill="#dc2626" opacity="0.82"/>
<line x1="740.56" y1="238.52" x2="740.56" y2="241.81" stroke="#dc2626" stroke-width="1.4"/>
<rect x="735.27" y="238.52" width="10.58" height="2.44" fill="#dc2626" opacity="0.82"/>
<line x1="70" y1="266.53" x2="750" y2="266.53" stroke="#2563eb" stroke-width="1.5" stroke-dasharray="4 4"/>
<text x="760" y="270.53" font-family="Arial" font-size="12" fill="#2563eb">Entry low 0.08781</text>
<line x1="70" y1="250.65" x2="750" y2="250.65" stroke="#2563eb" stroke-width="1.5" stroke-dasharray="4 4"/>
<text x="760" y="254.65" font-family="Arial" font-size="12" fill="#2563eb">Entry high 0.08911</text>
<line x1="70" y1="330.96" x2="750" y2="330.96" stroke="#dc2626" stroke-width="1.5"/>
<text x="760" y="334.96" font-family="Arial" font-size="12" fill="#dc2626">Stop 0.08252</text>
<line x1="70" y1="113.85" x2="750" y2="113.85" stroke="#16a34a" stroke-width="1.5"/>
<text x="760" y="117.85" font-family="Arial" font-size="12" fill="#16a34a">TP1 0.10034</text>
<line x1="70" y1="41.47" x2="750" y2="41.47" stroke="#15803d" stroke-width="1.5"/>
<text x="760" y="45.47" font-family="Arial" font-size="12" fill="#15803d">TP2 0.10628</text>
<line x1="70" y1="240.96" x2="750" y2="240.96" stroke="#111827" stroke-width="1.5" stroke-dasharray="2 3"/>
<text x="760" y="244.96" font-family="Arial" font-size="12" fill="#111827">Last 0.08991</text>
<text x="70" y="393" font-family="Arial" font-size="12" fill="#555">Candles: latest 36 x 4h Binance klines. Lines show entry zone, stop, TP1, TP2, and latest close.</text>
<text x="70" y="415" font-family="Arial" font-size="12" fill="#555">This chart is generated from locally fetched OHLCV, so you can compare it with Binance or TradingView manually.</text>
</svg>