<svg xmlns="http://www.w3.org/2000/svg" width="960" height="460" viewBox="0 0 960 460">
<rect width="100%" height="100%" fill="#ffffff"/>
<text x="70" y="22" font-family="Arial" font-size="16" font-weight="700">XRPUSDT 4h evidence chart</text>
<rect x="70" y="35" width="680" height="330" fill="#fafafa" stroke="#dddddd"/>
<line x1="70" y1="35.00" x2="750" y2="35.00" stroke="#eeeeee"/>
<text x="8" y="39.00" font-family="Arial" font-size="11" fill="#555">1.4327</text>
<line x1="70" y1="117.50" x2="750" y2="117.50" stroke="#eeeeee"/>
<text x="8" y="121.50" font-family="Arial" font-size="11" fill="#555">1.3249</text>
<line x1="70" y1="200.00" x2="750" y2="200.00" stroke="#eeeeee"/>
<text x="8" y="204.00" font-family="Arial" font-size="11" fill="#555">1.2172</text>
<line x1="70" y1="282.50" x2="750" y2="282.50" stroke="#eeeeee"/>
<text x="8" y="286.50" font-family="Arial" font-size="11" fill="#555">1.1094</text>
<line x1="70" y1="365.00" x2="750" y2="365.00" stroke="#eeeeee"/>
<text x="8" y="369.00" font-family="Arial" font-size="11" fill="#555">1.0016</text>
<line x1="79.44" y1="306.77" x2="79.44" y2="326.06" stroke="#dc2626" stroke-width="1.4"/>
<rect x="74.16" y="308.60" width="10.58" height="16.00" fill="#dc2626" opacity="0.82"/>
<line x1="98.33" y1="321.92" x2="98.33" y2="331.42" stroke="#dc2626" stroke-width="1.4"/>
<rect x="93.04" y="324.53" width="10.58" height="5.36" fill="#dc2626" opacity="0.82"/>
<line x1="117.22" y1="325.29" x2="117.22" y2="331.42" stroke="#16a34a" stroke-width="1.4"/>
<rect x="111.93" y="328.05" width="10.58" height="1.91" fill="#16a34a" opacity="0.82"/>
<line x1="136.11" y1="326.82" x2="136.11" y2="334.17" stroke="#16a34a" stroke-width="1.4"/>
<rect x="130.82" y="327.05" width="10.58" height="1.50" fill="#16a34a" opacity="0.82"/>
<line x1="155.00" y1="321.01" x2="155.00" y2="331.04" stroke="#16a34a" stroke-width="1.4"/>
<rect x="149.71" y="325.91" width="10.58" height="1.50" fill="#16a34a" opacity="0.82"/>
<line x1="173.89" y1="322.15" x2="173.89" y2="330.88" stroke="#dc2626" stroke-width="1.4"/>
<rect x="168.60" y="325.83" width="10.58" height="1.50" fill="#dc2626" opacity="0.82"/>
<line x1="192.78" y1="325.29" x2="192.78" y2="336.32" stroke="#dc2626" stroke-width="1.4"/>
<rect x="187.49" y="325.98" width="10.58" height="6.12" fill="#dc2626" opacity="0.82"/>
<line x1="211.67" y1="326.14" x2="211.67" y2="340.76" stroke="#16a34a" stroke-width="1.4"/>
<rect x="206.38" y="329.12" width="10.58" height="3.06" fill="#16a34a" opacity="0.82"/>
<line x1="230.56" y1="323.38" x2="230.56" y2="341.60" stroke="#16a34a" stroke-width="1.4"/>
<rect x="225.27" y="327.36" width="10.58" height="1.76" fill="#16a34a" opacity="0.82"/>
<line x1="249.44" y1="324.22" x2="249.44" y2="338.61" stroke="#dc2626" stroke-width="1.4"/>
<rect x="244.16" y="327.28" width="10.58" height="1.50" fill="#dc2626" opacity="0.82"/>
<line x1="268.33" y1="319.40" x2="268.33" y2="334.02" stroke="#16a34a" stroke-width="1.4"/>
<rect x="263.04" y="325.22" width="10.58" height="3.37" fill="#16a34a" opacity="0.82"/>
<line x1="287.22" y1="315.49" x2="287.22" y2="335.48" stroke="#dc2626" stroke-width="1.4"/>
<rect x="281.93" y="325.29" width="10.58" height="3.14" fill="#dc2626" opacity="0.82"/>
<line x1="306.11" y1="307.45" x2="306.11" y2="333.26" stroke="#16a34a" stroke-width="1.4"/>
<rect x="300.82" y="308.60" width="10.58" height="19.75" fill="#16a34a" opacity="0.82"/>
<line x1="325.00" y1="308.45" x2="325.00" y2="323.69" stroke="#dc2626" stroke-width="1.4"/>
<rect x="319.71" y="308.60" width="10.58" height="12.48" fill="#dc2626" opacity="0.82"/>
<line x1="343.89" y1="320.70" x2="343.89" y2="332.49" stroke="#dc2626" stroke-width="1.4"/>
<rect x="338.60" y="321.16" width="10.58" height="10.26" fill="#dc2626" opacity="0.82"/>
<line x1="362.78" y1="326.90" x2="362.78" y2="333.49" stroke="#16a34a" stroke-width="1.4"/>
<rect x="357.49" y="329.96" width="10.58" height="1.50" fill="#16a34a" opacity="0.82"/>
<line x1="381.67" y1="329.27" x2="381.67" y2="337.85" stroke="#dc2626" stroke-width="1.4"/>
<rect x="376.38" y="329.96" width="10.58" height="6.51" fill="#dc2626" opacity="0.82"/>
<line x1="400.56" y1="331.57" x2="400.56" y2="345.28" stroke="#dc2626" stroke-width="1.4"/>
<rect x="395.27" y="336.47" width="10.58" height="3.75" fill="#dc2626" opacity="0.82"/>
<line x1="419.44" y1="327.97" x2="419.44" y2="341.91" stroke="#16a34a" stroke-width="1.4"/>
<rect x="414.16" y="331.88" width="10.58" height="8.35" fill="#16a34a" opacity="0.82"/>
<line x1="438.33" y1="330.42" x2="438.33" y2="337.01" stroke="#dc2626" stroke-width="1.4"/>
<rect x="433.04" y="331.95" width="10.58" height="3.60" fill="#dc2626" opacity="0.82"/>
<line x1="457.22" y1="325.60" x2="457.22" y2="349.41" stroke="#16a34a" stroke-width="1.4"/>
<rect x="451.93" y="327.28" width="10.58" height="8.27" fill="#16a34a" opacity="0.82"/>
<line x1="476.11" y1="324.60" x2="476.11" y2="336.24" stroke="#dc2626" stroke-width="1.4"/>
<rect x="470.82" y="327.21" width="10.58" height="5.28" fill="#dc2626" opacity="0.82"/>
<line x1="495.00" y1="328.59" x2="495.00" y2="338.16" stroke="#dc2626" stroke-width="1.4"/>
<rect x="489.71" y="332.57" width="10.58" height="4.13" fill="#dc2626" opacity="0.82"/>
<line x1="513.89" y1="316.18" x2="513.89" y2="339.84" stroke="#16a34a" stroke-width="1.4"/>
<rect x="508.60" y="319.86" width="10.58" height="16.84" fill="#16a34a" opacity="0.82"/>
<line x1="532.78" y1="316.03" x2="532.78" y2="324.37" stroke="#16a34a" stroke-width="1.4"/>
<rect x="527.49" y="319.24" width="10.58" height="1.50" fill="#16a34a" opacity="0.82"/>
<line x1="551.67" y1="309.75" x2="551.67" y2="326.36" stroke="#dc2626" stroke-width="1.4"/>
<rect x="546.38" y="319.24" width="10.58" height="6.43" fill="#dc2626" opacity="0.82"/>
<line x1="570.56" y1="312.43" x2="570.56" y2="331.72" stroke="#16a34a" stroke-width="1.4"/>
<rect x="565.27" y="314.34" width="10.58" height="11.25" fill="#16a34a" opacity="0.82"/>
<line x1="589.44" y1="314.04" x2="589.44" y2="323.61" stroke="#dc2626" stroke-width="1.4"/>
<rect x="584.16" y="314.27" width="10.58" height="7.04" fill="#dc2626" opacity="0.82"/>
<line x1="608.33" y1="300.26" x2="608.33" y2="321.46" stroke="#16a34a" stroke-width="1.4"/>
<rect x="603.04" y="301.87" width="10.58" height="19.45" fill="#16a34a" opacity="0.82"/>
<line x1="627.22" y1="280.12" x2="627.22" y2="302.40" stroke="#16a34a" stroke-width="1.4"/>
<rect x="621.93" y="294.44" width="10.58" height="7.50" fill="#16a34a" opacity="0.82"/>
<line x1="646.11" y1="292.37" x2="646.11" y2="302.17" stroke="#dc2626" stroke-width="1.4"/>
<rect x="640.82" y="294.36" width="10.58" height="6.51" fill="#dc2626" opacity="0.82"/>
<line x1="665.00" y1="298.65" x2="665.00" y2="305.85" stroke="#16a34a" stroke-width="1.4"/>
<rect x="659.71" y="298.80" width="10.58" height="2.07" fill="#16a34a" opacity="0.82"/>
<line x1="683.89" y1="292.83" x2="683.89" y2="302.86" stroke="#16a34a" stroke-width="1.4"/>
<rect x="678.60" y="296.81" width="10.58" height="1.91" fill="#16a34a" opacity="0.82"/>
<line x1="702.78" y1="284.49" x2="702.78" y2="298.34" stroke="#16a34a" stroke-width="1.4"/>
<rect x="697.49" y="287.78" width="10.58" height="9.03" fill="#16a34a" opacity="0.82"/>
<line x1="721.67" y1="279.82" x2="721.67" y2="291.15" stroke="#16a34a" stroke-width="1.4"/>
<rect x="716.38" y="282.04" width="10.58" height="5.67" fill="#16a34a" opacity="0.82"/>
<line x1="740.56" y1="278.97" x2="740.56" y2="281.96" stroke="#16a34a" stroke-width="1.4"/>
<rect x="735.27" y="280.05" width="10.58" height="1.91" fill="#16a34a" opacity="0.82"/>
<line x1="70" y1="284.46" x2="750" y2="284.46" stroke="#2563eb" stroke-width="1.5" stroke-dasharray="4 4"/>
<text x="760" y="288.46" font-family="Arial" font-size="12" fill="#2563eb">Entry low 1.1068</text>
<line x1="70" y1="277.49" x2="750" y2="277.49" stroke="#2563eb" stroke-width="1.5" stroke-dasharray="4 4"/>
<text x="760" y="281.49" font-family="Arial" font-size="12" fill="#2563eb">Entry high 1.1159</text>
<line x1="70" y1="361.15" x2="750" y2="361.15" stroke="#dc2626" stroke-width="1.5"/>
<text x="760" y="365.15" font-family="Arial" font-size="12" fill="#dc2626">Stop 1.0067</text>
<line x1="70" y1="120.63" x2="750" y2="120.63" stroke="#16a34a" stroke-width="1.5"/>
<text x="760" y="124.63" font-family="Arial" font-size="12" fill="#16a34a">TP1 1.3208</text>
<line x1="70" y1="40.46" x2="750" y2="40.46" stroke="#15803d" stroke-width="1.5"/>
<text x="760" y="44.46" font-family="Arial" font-size="12" fill="#15803d">TP2 1.4255</text>
<line x1="70" y1="280.05" x2="750" y2="280.05" stroke="#111827" stroke-width="1.5" stroke-dasharray="2 3"/>
<text x="760" y="284.05" font-family="Arial" font-size="12" fill="#111827">Last 1.1126</text>
<text x="70" y="393" font-family="Arial" font-size="12" fill="#555">Candles: latest 36 x 4h Binance klines. Lines show entry zone, stop, TP1, TP2, and latest close.</text>
<text x="70" y="415" font-family="Arial" font-size="12" fill="#555">This chart is generated from locally fetched OHLCV, so you can compare it with Binance or TradingView manually.</text>
</svg>