<svg xmlns="http://www.w3.org/2000/svg" width="960" height="460" viewBox="0 0 960 460">
<rect width="100%" height="100%" fill="#ffffff"/>
<text x="70" y="22" font-family="Arial" font-size="16" font-weight="700">ADAUSDT 4h evidence chart</text>
<rect x="70" y="35" width="680" height="330" fill="#fafafa" stroke="#dddddd"/>
<line x1="70" y1="35.00" x2="750" y2="35.00" stroke="#eeeeee"/>
<text x="8" y="39.00" font-family="Arial" font-size="11" fill="#555">0.23950</text>
<line x1="70" y1="117.50" x2="750" y2="117.50" stroke="#eeeeee"/>
<text x="8" y="121.50" font-family="Arial" font-size="11" fill="#555">0.21897</text>
<line x1="70" y1="200.00" x2="750" y2="200.00" stroke="#eeeeee"/>
<text x="8" y="204.00" font-family="Arial" font-size="11" fill="#555">0.19845</text>
<line x1="70" y1="282.50" x2="750" y2="282.50" stroke="#eeeeee"/>
<text x="8" y="286.50" font-family="Arial" font-size="11" fill="#555">0.17793</text>
<line x1="70" y1="365.00" x2="750" y2="365.00" stroke="#eeeeee"/>
<text x="8" y="369.00" font-family="Arial" font-size="11" fill="#555">0.15741</text>
<line x1="79.44" y1="318.40" x2="79.44" y2="351.37" stroke="#16a34a" stroke-width="1.4"/>
<rect x="74.16" y="320.41" width="10.58" height="22.11" fill="#16a34a" opacity="0.82"/>
<line x1="98.33" y1="314.78" x2="98.33" y2="334.89" stroke="#dc2626" stroke-width="1.4"/>
<rect x="93.04" y="320.01" width="10.58" height="13.27" fill="#dc2626" opacity="0.82"/>
<line x1="117.22" y1="326.84" x2="117.22" y2="349.36" stroke="#dc2626" stroke-width="1.4"/>
<rect x="111.93" y="333.28" width="10.58" height="11.66" fill="#dc2626" opacity="0.82"/>
<line x1="136.11" y1="342.52" x2="136.11" y2="355.79" stroke="#dc2626" stroke-width="1.4"/>
<rect x="130.82" y="344.94" width="10.58" height="4.02" fill="#dc2626" opacity="0.82"/>
<line x1="155.00" y1="348.15" x2="155.00" y2="360.21" stroke="#dc2626" stroke-width="1.4"/>
<rect x="149.71" y="349.36" width="10.58" height="6.83" fill="#dc2626" opacity="0.82"/>
<line x1="173.89" y1="327.25" x2="173.89" y2="358.20" stroke="#16a34a" stroke-width="1.4"/>
<rect x="168.60" y="334.48" width="10.58" height="22.11" fill="#16a34a" opacity="0.82"/>
<line x1="192.78" y1="333.68" x2="192.78" y2="353.38" stroke="#dc2626" stroke-width="1.4"/>
<rect x="187.49" y="334.48" width="10.58" height="16.88" fill="#dc2626" opacity="0.82"/>
<line x1="211.67" y1="347.75" x2="211.67" y2="361.82" stroke="#dc2626" stroke-width="1.4"/>
<rect x="206.38" y="351.37" width="10.58" height="1.50" fill="#dc2626" opacity="0.82"/>
<line x1="230.56" y1="325.24" x2="230.56" y2="351.77" stroke="#16a34a" stroke-width="1.4"/>
<rect x="225.27" y="328.45" width="10.58" height="23.32" fill="#16a34a" opacity="0.82"/>
<line x1="249.44" y1="323.23" x2="249.44" y2="338.10" stroke="#16a34a" stroke-width="1.4"/>
<rect x="244.16" y="327.25" width="10.58" height="1.50" fill="#16a34a" opacity="0.82"/>
<line x1="268.33" y1="322.02" x2="268.33" y2="332.88" stroke="#16a34a" stroke-width="1.4"/>
<rect x="263.04" y="326.84" width="10.58" height="1.50" fill="#16a34a" opacity="0.82"/>
<line x1="287.22" y1="324.83" x2="287.22" y2="337.70" stroke="#dc2626" stroke-width="1.4"/>
<rect x="281.93" y="326.84" width="10.58" height="2.81" fill="#dc2626" opacity="0.82"/>
<line x1="306.11" y1="306.74" x2="306.11" y2="338.10" stroke="#16a34a" stroke-width="1.4"/>
<rect x="300.82" y="316.79" width="10.58" height="12.86" fill="#16a34a" opacity="0.82"/>
<line x1="325.00" y1="306.34" x2="325.00" y2="324.43" stroke="#16a34a" stroke-width="1.4"/>
<rect x="319.71" y="311.57" width="10.58" height="5.23" fill="#16a34a" opacity="0.82"/>
<line x1="343.89" y1="306.74" x2="343.89" y2="319.21" stroke="#16a34a" stroke-width="1.4"/>
<rect x="338.60" y="307.15" width="10.58" height="4.42" fill="#16a34a" opacity="0.82"/>
<line x1="362.78" y1="299.91" x2="362.78" y2="322.02" stroke="#dc2626" stroke-width="1.4"/>
<rect x="357.49" y="306.74" width="10.58" height="10.85" fill="#dc2626" opacity="0.82"/>
<line x1="381.67" y1="305.14" x2="381.67" y2="317.60" stroke="#16a34a" stroke-width="1.4"/>
<rect x="376.38" y="308.75" width="10.58" height="8.84" fill="#16a34a" opacity="0.82"/>
<line x1="400.56" y1="297.10" x2="400.56" y2="323.63" stroke="#dc2626" stroke-width="1.4"/>
<rect x="395.27" y="309.16" width="10.58" height="3.22" fill="#dc2626" opacity="0.82"/>
<line x1="419.44" y1="296.69" x2="419.44" y2="315.99" stroke="#16a34a" stroke-width="1.4"/>
<rect x="414.16" y="311.17" width="10.58" height="1.50" fill="#16a34a" opacity="0.82"/>
<line x1="438.33" y1="309.16" x2="438.33" y2="319.61" stroke="#dc2626" stroke-width="1.4"/>
<rect x="433.04" y="310.76" width="10.58" height="4.82" fill="#dc2626" opacity="0.82"/>
<line x1="457.22" y1="300.71" x2="457.22" y2="316.39" stroke="#16a34a" stroke-width="1.4"/>
<rect x="451.93" y="312.77" width="10.58" height="2.81" fill="#16a34a" opacity="0.82"/>
<line x1="476.11" y1="297.50" x2="476.11" y2="318.40" stroke="#16a34a" stroke-width="1.4"/>
<rect x="470.82" y="301.52" width="10.58" height="10.85" fill="#16a34a" opacity="0.82"/>
<line x1="495.00" y1="298.70" x2="495.00" y2="305.94" stroke="#16a34a" stroke-width="1.4"/>
<rect x="489.71" y="300.71" width="10.58" height="1.50" fill="#16a34a" opacity="0.82"/>
<line x1="513.89" y1="291.07" x2="513.89" y2="301.92" stroke="#16a34a" stroke-width="1.4"/>
<rect x="508.60" y="294.28" width="10.58" height="6.03" fill="#16a34a" opacity="0.82"/>
<line x1="532.78" y1="293.88" x2="532.78" y2="308.35" stroke="#dc2626" stroke-width="1.4"/>
<rect x="527.49" y="294.28" width="10.58" height="11.26" fill="#dc2626" opacity="0.82"/>
<line x1="551.67" y1="300.31" x2="551.67" y2="309.56" stroke="#dc2626" stroke-width="1.4"/>
<rect x="546.38" y="305.94" width="10.58" height="1.50" fill="#dc2626" opacity="0.82"/>
<line x1="570.56" y1="299.51" x2="570.56" y2="308.75" stroke="#16a34a" stroke-width="1.4"/>
<rect x="565.27" y="301.92" width="10.58" height="5.23" fill="#16a34a" opacity="0.82"/>
<line x1="589.44" y1="301.12" x2="589.44" y2="310.76" stroke="#dc2626" stroke-width="1.4"/>
<rect x="584.16" y="301.92" width="10.58" height="8.04" fill="#dc2626" opacity="0.82"/>
<line x1="608.33" y1="306.74" x2="608.33" y2="316.39" stroke="#dc2626" stroke-width="1.4"/>
<rect x="603.04" y="309.96" width="10.58" height="5.23" fill="#dc2626" opacity="0.82"/>
<line x1="627.22" y1="314.38" x2="627.22" y2="332.88" stroke="#dc2626" stroke-width="1.4"/>
<rect x="621.93" y="315.19" width="10.58" height="11.26" fill="#dc2626" opacity="0.82"/>
<line x1="646.11" y1="323.63" x2="646.11" y2="331.27" stroke="#dc2626" stroke-width="1.4"/>
<rect x="640.82" y="326.44" width="10.58" height="3.62" fill="#dc2626" opacity="0.82"/>
<line x1="665.00" y1="258.50" x2="665.00" y2="331.27" stroke="#16a34a" stroke-width="1.4"/>
<rect x="659.71" y="262.12" width="10.58" height="67.94" fill="#16a34a" opacity="0.82"/>
<line x1="683.89" y1="246.04" x2="683.89" y2="276.59" stroke="#dc2626" stroke-width="1.4"/>
<rect x="678.60" y="262.12" width="10.58" height="6.83" fill="#dc2626" opacity="0.82"/>
<line x1="702.78" y1="266.14" x2="702.78" y2="276.19" stroke="#dc2626" stroke-width="1.4"/>
<rect x="697.49" y="269.36" width="10.58" height="4.02" fill="#dc2626" opacity="0.82"/>
<line x1="721.67" y1="251.67" x2="721.67" y2="274.18" stroke="#16a34a" stroke-width="1.4"/>
<rect x="716.38" y="253.28" width="10.58" height="19.70" fill="#16a34a" opacity="0.82"/>
<line x1="740.56" y1="252.07" x2="740.56" y2="256.49" stroke="#dc2626" stroke-width="1.4"/>
<rect x="735.27" y="253.28" width="10.58" height="2.81" fill="#dc2626" opacity="0.82"/>
<line x1="70" y1="273.85" x2="750" y2="273.85" stroke="#2563eb" stroke-width="1.5" stroke-dasharray="4 4"/>
<text x="760" y="277.85" font-family="Arial" font-size="12" fill="#2563eb">Entry low 0.18008</text>
<line x1="70" y1="260.32" x2="750" y2="260.32" stroke="#2563eb" stroke-width="1.5" stroke-dasharray="4 4"/>
<text x="760" y="264.32" font-family="Arial" font-size="12" fill="#2563eb">Entry high 0.18345</text>
<line x1="70" y1="342.85" x2="750" y2="342.85" stroke="#dc2626" stroke-width="1.5"/>
<text x="760" y="346.85" font-family="Arial" font-size="12" fill="#dc2626">Stop 0.16292</text>
<line x1="70" y1="115.55" x2="750" y2="115.55" stroke="#16a34a" stroke-width="1.5"/>
<text x="760" y="119.55" font-family="Arial" font-size="12" fill="#16a34a">TP1 0.21946</text>
<line x1="70" y1="39.79" x2="750" y2="39.79" stroke="#15803d" stroke-width="1.5"/>
<text x="760" y="43.79" font-family="Arial" font-size="12" fill="#15803d">TP2 0.23830</text>
<line x1="70" y1="256.09" x2="750" y2="256.09" stroke="#111827" stroke-width="1.5" stroke-dasharray="2 3"/>
<text x="760" y="260.09" font-family="Arial" font-size="12" fill="#111827">Last 0.18450</text>
<text x="70" y="393" font-family="Arial" font-size="12" fill="#555">Candles: latest 36 x 4h Binance klines. Lines show entry zone, stop, TP1, TP2, and latest close.</text>
<text x="70" y="415" font-family="Arial" font-size="12" fill="#555">This chart is generated from locally fetched OHLCV, so you can compare it with Binance or TradingView manually.</text>
</svg>