<svg xmlns="http://www.w3.org/2000/svg" width="960" height="460" viewBox="0 0 960 460">
<rect width="100%" height="100%" fill="#ffffff"/>
<text x="70" y="22" font-family="Arial" font-size="16" font-weight="700">SOLUSDT 4h evidence chart</text>
<rect x="70" y="35" width="680" height="330" fill="#fafafa" stroke="#dddddd"/>
<line x1="70" y1="35.00" x2="750" y2="35.00" stroke="#eeeeee"/>
<text x="8" y="39.00" font-family="Arial" font-size="11" fill="#555">81.9604</text>
<line x1="70" y1="117.50" x2="750" y2="117.50" stroke="#eeeeee"/>
<text x="8" y="121.50" font-family="Arial" font-size="11" fill="#555">79.3223</text>
<line x1="70" y1="200.00" x2="750" y2="200.00" stroke="#eeeeee"/>
<text x="8" y="204.00" font-family="Arial" font-size="11" fill="#555">76.6843</text>
<line x1="70" y1="282.50" x2="750" y2="282.50" stroke="#eeeeee"/>
<text x="8" y="286.50" font-family="Arial" font-size="11" fill="#555">74.0463</text>
<line x1="70" y1="365.00" x2="750" y2="365.00" stroke="#eeeeee"/>
<text x="8" y="369.00" font-family="Arial" font-size="11" fill="#555">71.4083</text>
<line x1="79.44" y1="133.52" x2="79.44" y2="180.43" stroke="#dc2626" stroke-width="1.4"/>
<rect x="74.16" y="144.47" width="10.58" height="25.02" fill="#dc2626" opacity="0.82"/>
<line x1="98.33" y1="155.10" x2="98.33" y2="174.49" stroke="#16a34a" stroke-width="1.4"/>
<rect x="93.04" y="159.79" width="10.58" height="9.69" fill="#16a34a" opacity="0.82"/>
<line x1="117.22" y1="141.97" x2="117.22" y2="177.62" stroke="#dc2626" stroke-width="1.4"/>
<rect x="111.93" y="159.79" width="10.58" height="11.57" fill="#dc2626" opacity="0.82"/>
<line x1="136.11" y1="164.17" x2="136.11" y2="188.88" stroke="#dc2626" stroke-width="1.4"/>
<rect x="130.82" y="171.36" width="10.58" height="13.76" fill="#dc2626" opacity="0.82"/>
<line x1="155.00" y1="162.92" x2="155.00" y2="186.69" stroke="#16a34a" stroke-width="1.4"/>
<rect x="149.71" y="169.17" width="10.58" height="15.95" fill="#16a34a" opacity="0.82"/>
<line x1="173.89" y1="166.98" x2="173.89" y2="225.78" stroke="#dc2626" stroke-width="1.4"/>
<rect x="168.60" y="169.17" width="10.58" height="40.03" fill="#dc2626" opacity="0.82"/>
<line x1="192.78" y1="209.20" x2="192.78" y2="239.23" stroke="#dc2626" stroke-width="1.4"/>
<rect x="187.49" y="209.20" width="10.58" height="20.01" fill="#dc2626" opacity="0.82"/>
<line x1="211.67" y1="212.64" x2="211.67" y2="230.47" stroke="#16a34a" stroke-width="1.4"/>
<rect x="206.38" y="225.15" width="10.58" height="4.38" fill="#16a34a" opacity="0.82"/>
<line x1="230.56" y1="217.34" x2="230.56" y2="243.29" stroke="#dc2626" stroke-width="1.4"/>
<rect x="225.27" y="225.15" width="10.58" height="1.56" fill="#dc2626" opacity="0.82"/>
<line x1="249.44" y1="207.33" x2="249.44" y2="234.22" stroke="#16a34a" stroke-width="1.4"/>
<rect x="244.16" y="219.21" width="10.58" height="7.19" fill="#16a34a" opacity="0.82"/>
<line x1="268.33" y1="217.96" x2="268.33" y2="253.61" stroke="#dc2626" stroke-width="1.4"/>
<rect x="263.04" y="218.90" width="10.58" height="27.52" fill="#dc2626" opacity="0.82"/>
<line x1="287.22" y1="243.29" x2="287.22" y2="296.14" stroke="#dc2626" stroke-width="1.4"/>
<rect x="281.93" y="246.42" width="10.58" height="36.28" fill="#dc2626" opacity="0.82"/>
<line x1="306.11" y1="277.07" x2="306.11" y2="293.02" stroke="#dc2626" stroke-width="1.4"/>
<rect x="300.82" y="282.70" width="10.58" height="2.19" fill="#dc2626" opacity="0.82"/>
<line x1="325.00" y1="283.01" x2="325.00" y2="301.46" stroke="#dc2626" stroke-width="1.4"/>
<rect x="319.71" y="284.89" width="10.58" height="1.50" fill="#dc2626" opacity="0.82"/>
<line x1="343.89" y1="273.63" x2="343.89" y2="285.82" stroke="#16a34a" stroke-width="1.4"/>
<rect x="338.60" y="279.57" width="10.58" height="5.32" fill="#16a34a" opacity="0.82"/>
<line x1="362.78" y1="272.69" x2="362.78" y2="291.14" stroke="#dc2626" stroke-width="1.4"/>
<rect x="357.49" y="279.57" width="10.58" height="10.95" fill="#dc2626" opacity="0.82"/>
<line x1="381.67" y1="282.38" x2="381.67" y2="297.71" stroke="#16a34a" stroke-width="1.4"/>
<rect x="376.38" y="286.45" width="10.58" height="4.07" fill="#16a34a" opacity="0.82"/>
<line x1="400.56" y1="274.25" x2="400.56" y2="290.83" stroke="#16a34a" stroke-width="1.4"/>
<rect x="395.27" y="278.32" width="10.58" height="8.13" fill="#16a34a" opacity="0.82"/>
<line x1="419.44" y1="261.12" x2="419.44" y2="281.13" stroke="#16a34a" stroke-width="1.4"/>
<rect x="414.16" y="266.12" width="10.58" height="12.20" fill="#16a34a" opacity="0.82"/>
<line x1="438.33" y1="265.18" x2="438.33" y2="275.19" stroke="#dc2626" stroke-width="1.4"/>
<rect x="433.04" y="266.12" width="10.58" height="1.56" fill="#dc2626" opacity="0.82"/>
<line x1="457.22" y1="251.11" x2="457.22" y2="269.25" stroke="#16a34a" stroke-width="1.4"/>
<rect x="451.93" y="251.74" width="10.58" height="15.64" fill="#16a34a" opacity="0.82"/>
<line x1="476.11" y1="245.48" x2="476.11" y2="260.81" stroke="#dc2626" stroke-width="1.4"/>
<rect x="470.82" y="251.42" width="10.58" height="5.32" fill="#dc2626" opacity="0.82"/>
<line x1="495.00" y1="243.92" x2="495.00" y2="257.37" stroke="#16a34a" stroke-width="1.4"/>
<rect x="489.71" y="254.24" width="10.58" height="2.19" fill="#16a34a" opacity="0.82"/>
<line x1="513.89" y1="237.04" x2="513.89" y2="260.49" stroke="#16a34a" stroke-width="1.4"/>
<rect x="508.60" y="237.35" width="10.58" height="16.89" fill="#16a34a" opacity="0.82"/>
<line x1="532.78" y1="221.71" x2="532.78" y2="244.86" stroke="#dc2626" stroke-width="1.4"/>
<rect x="527.49" y="237.66" width="10.58" height="4.38" fill="#dc2626" opacity="0.82"/>
<line x1="551.67" y1="187.00" x2="551.67" y2="242.98" stroke="#16a34a" stroke-width="1.4"/>
<rect x="546.38" y="197.63" width="10.58" height="44.41" fill="#16a34a" opacity="0.82"/>
<line x1="570.56" y1="196.38" x2="570.56" y2="222.03" stroke="#dc2626" stroke-width="1.4"/>
<rect x="565.27" y="197.32" width="10.58" height="11.57" fill="#dc2626" opacity="0.82"/>
<line x1="589.44" y1="190.44" x2="589.44" y2="213.27" stroke="#16a34a" stroke-width="1.4"/>
<rect x="584.16" y="206.70" width="10.58" height="1.88" fill="#16a34a" opacity="0.82"/>
<line x1="608.33" y1="199.82" x2="608.33" y2="217.34" stroke="#16a34a" stroke-width="1.4"/>
<rect x="603.04" y="205.76" width="10.58" height="1.50" fill="#16a34a" opacity="0.82"/>
<line x1="627.22" y1="174.49" x2="627.22" y2="251.74" stroke="#dc2626" stroke-width="1.4"/>
<rect x="621.93" y="205.45" width="10.58" height="38.47" fill="#dc2626" opacity="0.82"/>
<line x1="646.11" y1="213.58" x2="646.11" y2="247.98" stroke="#16a34a" stroke-width="1.4"/>
<rect x="640.82" y="222.03" width="10.58" height="21.58" fill="#16a34a" opacity="0.82"/>
<line x1="665.00" y1="217.02" x2="665.00" y2="292.08" stroke="#dc2626" stroke-width="1.4"/>
<rect x="659.71" y="222.03" width="10.58" height="55.67" fill="#dc2626" opacity="0.82"/>
<line x1="683.89" y1="274.88" x2="683.89" y2="319.60" stroke="#dc2626" stroke-width="1.4"/>
<rect x="678.60" y="277.38" width="10.58" height="29.08" fill="#dc2626" opacity="0.82"/>
<line x1="702.78" y1="298.02" x2="702.78" y2="315.22" stroke="#16a34a" stroke-width="1.4"/>
<rect x="697.49" y="305.84" width="10.58" height="1.50" fill="#16a34a" opacity="0.82"/>
<line x1="721.67" y1="299.27" x2="721.67" y2="318.66" stroke="#dc2626" stroke-width="1.4"/>
<rect x="716.38" y="306.15" width="10.58" height="2.81" fill="#dc2626" opacity="0.82"/>
<line x1="740.56" y1="306.78" x2="740.56" y2="311.16" stroke="#16a34a" stroke-width="1.4"/>
<rect x="735.27" y="307.09" width="10.58" height="1.88" fill="#16a34a" opacity="0.82"/>
<line x1="70" y1="315.04" x2="750" y2="315.04" stroke="#2563eb" stroke-width="1.5" stroke-dasharray="4 4"/>
<text x="760" y="319.04" font-family="Arial" font-size="12" fill="#2563eb">Entry low 73.0057</text>
<line x1="70" y1="300.22" x2="750" y2="300.22" stroke="#2563eb" stroke-width="1.5" stroke-dasharray="4 4"/>
<text x="760" y="304.22" font-family="Arial" font-size="12" fill="#2563eb">Entry high 73.4798</text>
<line x1="70" y1="353.78" x2="750" y2="353.78" stroke="#dc2626" stroke-width="1.5"/>
<text x="760" y="357.78" font-family="Arial" font-size="12" fill="#dc2626">Stop 71.7671</text>
<line x1="70" y1="145.85" x2="750" y2="145.85" stroke="#16a34a" stroke-width="1.5"/>
<text x="760" y="149.85" font-family="Arial" font-size="12" fill="#16a34a">TP1 78.4159</text>
<line x1="70" y1="47.75" x2="750" y2="47.75" stroke="#15803d" stroke-width="1.5"/>
<text x="760" y="51.75" font-family="Arial" font-size="12" fill="#15803d">TP2 81.5526</text>
<line x1="70" y1="307.09" x2="750" y2="307.09" stroke="#111827" stroke-width="1.5" stroke-dasharray="2 3"/>
<text x="760" y="311.09" font-family="Arial" font-size="12" fill="#111827">Last 73.2600</text>
<text x="70" y="393" font-family="Arial" font-size="12" fill="#555">Candles: latest 36 x 4h Binance klines. Lines show entry zone, stop, TP1, TP2, and latest close.</text>
<text x="70" y="415" font-family="Arial" font-size="12" fill="#555">This chart is generated from locally fetched OHLCV, so you can compare it with Binance or TradingView manually.</text>
</svg>