<svg xmlns="http://www.w3.org/2000/svg" width="960" height="460" viewBox="0 0 960 460">
<rect width="100%" height="100%" fill="#ffffff"/>
<text x="70" y="22" font-family="Arial" font-size="16" font-weight="700">DASHUSDT 4h evidence chart</text>
<rect x="70" y="35" width="680" height="330" fill="#fafafa" stroke="#dddddd"/>
<line x1="70" y1="35.00" x2="750" y2="35.00" stroke="#eeeeee"/>
<text x="8" y="39.00" font-family="Arial" font-size="11" fill="#555">108.46</text>
<line x1="70" y1="117.50" x2="750" y2="117.50" stroke="#eeeeee"/>
<text x="8" y="121.50" font-family="Arial" font-size="11" fill="#555">91.5720</text>
<line x1="70" y1="200.00" x2="750" y2="200.00" stroke="#eeeeee"/>
<text x="8" y="204.00" font-family="Arial" font-size="11" fill="#555">74.6828</text>
<line x1="70" y1="282.50" x2="750" y2="282.50" stroke="#eeeeee"/>
<text x="8" y="286.50" font-family="Arial" font-size="11" fill="#555">57.7936</text>
<line x1="70" y1="365.00" x2="750" y2="365.00" stroke="#eeeeee"/>
<text x="8" y="369.00" font-family="Arial" font-size="11" fill="#555">40.9044</text>
<line x1="79.44" y1="346.90" x2="79.44" y2="355.89" stroke="#dc2626" stroke-width="1.4"/>
<rect x="74.16" y="347.05" width="10.58" height="4.35" fill="#dc2626" opacity="0.82"/>
<line x1="98.33" y1="349.68" x2="98.33" y2="353.74" stroke="#16a34a" stroke-width="1.4"/>
<rect x="93.04" y="350.37" width="10.58" height="1.50" fill="#16a34a" opacity="0.82"/>
<line x1="117.22" y1="350.12" x2="117.22" y2="360.58" stroke="#dc2626" stroke-width="1.4"/>
<rect x="111.93" y="350.37" width="10.58" height="6.15" fill="#dc2626" opacity="0.82"/>
<line x1="136.11" y1="355.50" x2="136.11" y2="360.09" stroke="#dc2626" stroke-width="1.4"/>
<rect x="130.82" y="356.57" width="10.58" height="2.74" fill="#dc2626" opacity="0.82"/>
<line x1="155.00" y1="358.38" x2="155.00" y2="364.00" stroke="#dc2626" stroke-width="1.4"/>
<rect x="149.71" y="359.16" width="10.58" height="1.81" fill="#dc2626" opacity="0.82"/>
<line x1="173.89" y1="355.64" x2="173.89" y2="361.60" stroke="#16a34a" stroke-width="1.4"/>
<rect x="168.60" y="358.82" width="10.58" height="2.20" fill="#16a34a" opacity="0.82"/>
<line x1="192.78" y1="356.47" x2="192.78" y2="359.80" stroke="#dc2626" stroke-width="1.4"/>
<rect x="187.49" y="358.87" width="10.58" height="1.50" fill="#dc2626" opacity="0.82"/>
<line x1="211.67" y1="351.59" x2="211.67" y2="359.26" stroke="#16a34a" stroke-width="1.4"/>
<rect x="206.38" y="356.33" width="10.58" height="2.69" fill="#16a34a" opacity="0.82"/>
<line x1="230.56" y1="354.57" x2="230.56" y2="359.21" stroke="#dc2626" stroke-width="1.4"/>
<rect x="225.27" y="356.28" width="10.58" height="1.50" fill="#dc2626" opacity="0.82"/>
<line x1="249.44" y1="355.06" x2="249.44" y2="359.31" stroke="#16a34a" stroke-width="1.4"/>
<rect x="244.16" y="357.45" width="10.58" height="1.50" fill="#16a34a" opacity="0.82"/>
<line x1="268.33" y1="352.37" x2="268.33" y2="357.99" stroke="#16a34a" stroke-width="1.4"/>
<rect x="263.04" y="353.01" width="10.58" height="4.54" fill="#16a34a" opacity="0.82"/>
<line x1="287.22" y1="332.78" x2="287.22" y2="356.86" stroke="#16a34a" stroke-width="1.4"/>
<rect x="281.93" y="333.51" width="10.58" height="19.59" fill="#16a34a" opacity="0.82"/>
<line x1="306.11" y1="333.37" x2="306.11" y2="342.36" stroke="#dc2626" stroke-width="1.4"/>
<rect x="300.82" y="333.61" width="10.58" height="4.59" fill="#dc2626" opacity="0.82"/>
<line x1="325.00" y1="332.29" x2="325.00" y2="340.74" stroke="#16a34a" stroke-width="1.4"/>
<rect x="319.71" y="333.17" width="10.58" height="5.13" fill="#16a34a" opacity="0.82"/>
<line x1="343.89" y1="312.36" x2="343.89" y2="339.57" stroke="#16a34a" stroke-width="1.4"/>
<rect x="338.60" y="313.49" width="10.58" height="19.64" fill="#16a34a" opacity="0.82"/>
<line x1="362.78" y1="306.06" x2="362.78" y2="326.82" stroke="#dc2626" stroke-width="1.4"/>
<rect x="357.49" y="313.49" width="10.58" height="7.86" fill="#dc2626" opacity="0.82"/>
<line x1="381.67" y1="298.10" x2="381.67" y2="321.64" stroke="#16a34a" stroke-width="1.4"/>
<rect x="376.38" y="307.43" width="10.58" height="13.87" fill="#16a34a" opacity="0.82"/>
<line x1="400.56" y1="302.25" x2="400.56" y2="324.33" stroke="#16a34a" stroke-width="1.4"/>
<rect x="395.27" y="307.58" width="10.58" height="1.50" fill="#16a34a" opacity="0.82"/>
<line x1="419.44" y1="288.82" x2="419.44" y2="308.94" stroke="#16a34a" stroke-width="1.4"/>
<rect x="414.16" y="295.36" width="10.58" height="12.21" fill="#16a34a" opacity="0.82"/>
<line x1="438.33" y1="250.96" x2="438.33" y2="295.51" stroke="#16a34a" stroke-width="1.4"/>
<rect x="433.04" y="259.27" width="10.58" height="36.05" fill="#16a34a" opacity="0.82"/>
<line x1="457.22" y1="229.03" x2="457.22" y2="263.32" stroke="#16a34a" stroke-width="1.4"/>
<rect x="451.93" y="240.41" width="10.58" height="18.95" fill="#16a34a" opacity="0.82"/>
<line x1="476.11" y1="204.31" x2="476.11" y2="245.00" stroke="#dc2626" stroke-width="1.4"/>
<rect x="470.82" y="240.36" width="10.58" height="2.88" fill="#dc2626" opacity="0.82"/>
<line x1="495.00" y1="229.22" x2="495.00" y2="244.90" stroke="#16a34a" stroke-width="1.4"/>
<rect x="489.71" y="232.79" width="10.58" height="10.40" fill="#16a34a" opacity="0.82"/>
<line x1="513.89" y1="218.67" x2="513.89" y2="236.99" stroke="#16a34a" stroke-width="1.4"/>
<rect x="508.60" y="230.54" width="10.58" height="2.15" fill="#16a34a" opacity="0.82"/>
<line x1="532.78" y1="220.04" x2="532.78" y2="241.19" stroke="#dc2626" stroke-width="1.4"/>
<rect x="527.49" y="230.40" width="10.58" height="6.35" fill="#dc2626" opacity="0.82"/>
<line x1="551.67" y1="229.86" x2="551.67" y2="248.76" stroke="#dc2626" stroke-width="1.4"/>
<rect x="546.38" y="236.80" width="10.58" height="8.16" fill="#dc2626" opacity="0.82"/>
<line x1="570.56" y1="224.83" x2="570.56" y2="246.27" stroke="#16a34a" stroke-width="1.4"/>
<rect x="565.27" y="230.20" width="10.58" height="14.70" fill="#16a34a" opacity="0.82"/>
<line x1="589.44" y1="180.47" x2="589.44" y2="232.25" stroke="#16a34a" stroke-width="1.4"/>
<rect x="584.16" y="220.68" width="10.58" height="9.48" fill="#16a34a" opacity="0.82"/>
<line x1="608.33" y1="219.55" x2="608.33" y2="244.12" stroke="#dc2626" stroke-width="1.4"/>
<rect x="603.04" y="220.63" width="10.58" height="11.92" fill="#dc2626" opacity="0.82"/>
<line x1="627.22" y1="218.28" x2="627.22" y2="240.12" stroke="#dc2626" stroke-width="1.4"/>
<rect x="621.93" y="232.60" width="10.58" height="5.42" fill="#dc2626" opacity="0.82"/>
<line x1="646.11" y1="214.62" x2="646.11" y2="240.26" stroke="#16a34a" stroke-width="1.4"/>
<rect x="640.82" y="218.19" width="10.58" height="19.83" fill="#16a34a" opacity="0.82"/>
<line x1="665.00" y1="214.37" x2="665.00" y2="224.83" stroke="#16a34a" stroke-width="1.4"/>
<rect x="659.71" y="216.48" width="10.58" height="1.71" fill="#16a34a" opacity="0.82"/>
<line x1="683.89" y1="211.00" x2="683.89" y2="231.18" stroke="#dc2626" stroke-width="1.4"/>
<rect x="678.60" y="216.52" width="10.58" height="7.77" fill="#dc2626" opacity="0.82"/>
<line x1="702.78" y1="215.99" x2="702.78" y2="241.44" stroke="#dc2626" stroke-width="1.4"/>
<rect x="697.49" y="224.24" width="10.58" height="8.89" fill="#dc2626" opacity="0.82"/>
<line x1="721.67" y1="227.12" x2="721.67" y2="236.70" stroke="#dc2626" stroke-width="1.4"/>
<rect x="716.38" y="233.03" width="10.58" height="1.50" fill="#dc2626" opacity="0.82"/>
<line x1="740.56" y1="232.35" x2="740.56" y2="233.96" stroke="#dc2626" stroke-width="1.4"/>
<rect x="735.27" y="233.28" width="10.58" height="1.50" fill="#dc2626" opacity="0.82"/>
<line x1="70" y1="249.25" x2="750" y2="249.25" stroke="#2563eb" stroke-width="1.5" stroke-dasharray="4 4"/>
<text x="760" y="253.25" font-family="Arial" font-size="12" fill="#2563eb">Entry low 64.5999</text>
<line x1="70" y1="238.74" x2="750" y2="238.74" stroke="#2563eb" stroke-width="1.5" stroke-dasharray="4 4"/>
<text x="760" y="242.74" font-family="Arial" font-size="12" fill="#2563eb">Entry high 66.7523</text>
<line x1="70" y1="312.78" x2="750" y2="312.78" stroke="#dc2626" stroke-width="1.5"/>
<text x="760" y="316.78" font-family="Arial" font-size="12" fill="#dc2626">Stop 51.5943</text>
<line x1="70" y1="106.42" x2="750" y2="106.42" stroke="#16a34a" stroke-width="1.5"/>
<text x="760" y="110.42" font-family="Arial" font-size="12" fill="#16a34a">TP1 93.8397</text>
<line x1="70" y1="37.64" x2="750" y2="37.64" stroke="#15803d" stroke-width="1.5"/>
<text x="760" y="41.64" font-family="Arial" font-size="12" fill="#15803d">TP2 107.92</text>
<line x1="70" y1="233.62" x2="750" y2="233.62" stroke="#111827" stroke-width="1.5" stroke-dasharray="2 3"/>
<text x="760" y="237.62" font-family="Arial" font-size="12" fill="#111827">Last 67.8000</text>
<text x="70" y="393" font-family="Arial" font-size="12" fill="#555">Candles: latest 36 x 4h Binance klines. Lines show entry zone, stop, TP1, TP2, and latest close.</text>
<text x="70" y="415" font-family="Arial" font-size="12" fill="#555">This chart is generated from locally fetched OHLCV, so you can compare it with Binance or TradingView manually.</text>
</svg>