<svg xmlns="http://www.w3.org/2000/svg" width="960" height="460" viewBox="0 0 960 460">
<rect width="100%" height="100%" fill="#ffffff"/>
<text x="70" y="22" font-family="Arial" font-size="16" font-weight="700">SYNUSDT 4h evidence chart</text>
<rect x="70" y="35" width="680" height="330" fill="#fafafa" stroke="#dddddd"/>
<line x1="70" y1="35.00" x2="750" y2="35.00" stroke="#eeeeee"/>
<text x="8" y="39.00" font-family="Arial" font-size="11" fill="#555">1.4627</text>
<line x1="70" y1="117.50" x2="750" y2="117.50" stroke="#eeeeee"/>
<text x="8" y="121.50" font-family="Arial" font-size="11" fill="#555">1.1623</text>
<line x1="70" y1="200.00" x2="750" y2="200.00" stroke="#eeeeee"/>
<text x="8" y="204.00" font-family="Arial" font-size="11" fill="#555">0.86188</text>
<line x1="70" y1="282.50" x2="750" y2="282.50" stroke="#eeeeee"/>
<text x="8" y="286.50" font-family="Arial" font-size="11" fill="#555">0.56149</text>
<line x1="70" y1="365.00" x2="750" y2="365.00" stroke="#eeeeee"/>
<text x="8" y="369.00" font-family="Arial" font-size="11" fill="#555">0.26110</text>
<line x1="79.44" y1="335.42" x2="79.44" y2="352.28" stroke="#dc2626" stroke-width="1.4"/>
<rect x="74.16" y="346.30" width="10.58" height="1.50" fill="#dc2626" opacity="0.82"/>
<line x1="98.33" y1="340.86" x2="98.33" y2="349.57" stroke="#dc2626" stroke-width="1.4"/>
<rect x="93.04" y="347.51" width="10.58" height="1.50" fill="#dc2626" opacity="0.82"/>
<line x1="117.22" y1="344.43" x2="117.22" y2="350.88" stroke="#16a34a" stroke-width="1.4"/>
<rect x="111.93" y="346.38" width="10.58" height="1.50" fill="#16a34a" opacity="0.82"/>
<line x1="136.11" y1="333.57" x2="136.11" y2="346.68" stroke="#16a34a" stroke-width="1.4"/>
<rect x="130.82" y="334.98" width="10.58" height="11.38" fill="#16a34a" opacity="0.82"/>
<line x1="155.00" y1="325.26" x2="155.00" y2="341.60" stroke="#16a34a" stroke-width="1.4"/>
<rect x="149.71" y="327.40" width="10.58" height="7.58" fill="#16a34a" opacity="0.82"/>
<line x1="173.89" y1="269.91" x2="173.89" y2="338.38" stroke="#dc2626" stroke-width="1.4"/>
<rect x="168.60" y="327.32" width="10.58" height="1.65" fill="#dc2626" opacity="0.82"/>
<line x1="192.78" y1="315.02" x2="192.78" y2="334.96" stroke="#16a34a" stroke-width="1.4"/>
<rect x="187.49" y="326.17" width="10.58" height="2.80" fill="#16a34a" opacity="0.82"/>
<line x1="211.67" y1="325.05" x2="211.67" y2="347.36" stroke="#dc2626" stroke-width="1.4"/>
<rect x="206.38" y="326.06" width="10.58" height="19.83" fill="#dc2626" opacity="0.82"/>
<line x1="230.56" y1="334.30" x2="230.56" y2="348.36" stroke="#16a34a" stroke-width="1.4"/>
<rect x="225.27" y="335.90" width="10.58" height="10.03" fill="#16a34a" opacity="0.82"/>
<line x1="249.44" y1="332.66" x2="249.44" y2="355.09" stroke="#dc2626" stroke-width="1.4"/>
<rect x="244.16" y="335.87" width="10.58" height="18.63" fill="#dc2626" opacity="0.82"/>
<line x1="268.33" y1="327.25" x2="268.33" y2="354.78" stroke="#16a34a" stroke-width="1.4"/>
<rect x="263.04" y="332.89" width="10.58" height="21.75" fill="#16a34a" opacity="0.82"/>
<line x1="287.22" y1="330.60" x2="287.22" y2="347.35" stroke="#dc2626" stroke-width="1.4"/>
<rect x="281.93" y="332.78" width="10.58" height="12.55" fill="#dc2626" opacity="0.82"/>
<line x1="306.11" y1="338.50" x2="306.11" y2="345.41" stroke="#16a34a" stroke-width="1.4"/>
<rect x="300.82" y="343.55" width="10.58" height="1.85" fill="#16a34a" opacity="0.82"/>
<line x1="325.00" y1="340.86" x2="325.00" y2="349.23" stroke="#dc2626" stroke-width="1.4"/>
<rect x="319.71" y="343.53" width="10.58" height="3.18" fill="#dc2626" opacity="0.82"/>
<line x1="343.89" y1="335.66" x2="343.89" y2="349.23" stroke="#16a34a" stroke-width="1.4"/>
<rect x="338.60" y="336.26" width="10.58" height="10.48" fill="#16a34a" opacity="0.82"/>
<line x1="362.78" y1="332.62" x2="362.78" y2="346.28" stroke="#dc2626" stroke-width="1.4"/>
<rect x="357.49" y="336.29" width="10.58" height="3.16" fill="#dc2626" opacity="0.82"/>
<line x1="381.67" y1="334.61" x2="381.67" y2="344.37" stroke="#dc2626" stroke-width="1.4"/>
<rect x="376.38" y="339.36" width="10.58" height="1.50" fill="#dc2626" opacity="0.82"/>
<line x1="400.56" y1="335.37" x2="400.56" y2="344.92" stroke="#dc2626" stroke-width="1.4"/>
<rect x="395.27" y="340.47" width="10.58" height="3.34" fill="#dc2626" opacity="0.82"/>
<line x1="419.44" y1="343.11" x2="419.44" y2="363.54" stroke="#dc2626" stroke-width="1.4"/>
<rect x="414.16" y="343.80" width="10.58" height="11.69" fill="#dc2626" opacity="0.82"/>
<line x1="438.33" y1="353.68" x2="438.33" y2="357.39" stroke="#16a34a" stroke-width="1.4"/>
<rect x="433.04" y="354.64" width="10.58" height="1.50" fill="#16a34a" opacity="0.82"/>
<line x1="457.22" y1="345.84" x2="457.22" y2="355.26" stroke="#16a34a" stroke-width="1.4"/>
<rect x="451.93" y="347.01" width="10.58" height="7.69" fill="#16a34a" opacity="0.82"/>
<line x1="476.11" y1="337.50" x2="476.11" y2="352.83" stroke="#16a34a" stroke-width="1.4"/>
<rect x="470.82" y="337.62" width="10.58" height="9.35" fill="#16a34a" opacity="0.82"/>
<line x1="495.00" y1="302.59" x2="495.00" y2="338.56" stroke="#16a34a" stroke-width="1.4"/>
<rect x="489.71" y="306.46" width="10.58" height="31.16" fill="#16a34a" opacity="0.82"/>
<line x1="513.89" y1="302.13" x2="513.89" y2="337.08" stroke="#dc2626" stroke-width="1.4"/>
<rect x="508.60" y="306.52" width="10.58" height="29.67" fill="#dc2626" opacity="0.82"/>
<line x1="532.78" y1="329.89" x2="532.78" y2="346.62" stroke="#dc2626" stroke-width="1.4"/>
<rect x="527.49" y="336.16" width="10.58" height="5.38" fill="#dc2626" opacity="0.82"/>
<line x1="551.67" y1="331.92" x2="551.67" y2="341.38" stroke="#16a34a" stroke-width="1.4"/>
<rect x="546.38" y="332.35" width="10.58" height="9.01" fill="#16a34a" opacity="0.82"/>
<line x1="570.56" y1="313.40" x2="570.56" y2="333.07" stroke="#16a34a" stroke-width="1.4"/>
<rect x="565.27" y="329.77" width="10.58" height="2.57" fill="#16a34a" opacity="0.82"/>
<line x1="589.44" y1="322.73" x2="589.44" y2="333.14" stroke="#16a34a" stroke-width="1.4"/>
<rect x="584.16" y="328.76" width="10.58" height="1.50" fill="#16a34a" opacity="0.82"/>
<line x1="608.33" y1="318.06" x2="608.33" y2="330.63" stroke="#16a34a" stroke-width="1.4"/>
<rect x="603.04" y="320.96" width="10.58" height="7.79" fill="#16a34a" opacity="0.82"/>
<line x1="627.22" y1="311.61" x2="627.22" y2="328.31" stroke="#16a34a" stroke-width="1.4"/>
<rect x="621.93" y="316.79" width="10.58" height="4.00" fill="#16a34a" opacity="0.82"/>
<line x1="646.11" y1="286.71" x2="646.11" y2="324.57" stroke="#16a34a" stroke-width="1.4"/>
<rect x="640.82" y="290.92" width="10.58" height="25.77" fill="#16a34a" opacity="0.82"/>
<line x1="665.00" y1="282.91" x2="665.00" y2="305.29" stroke="#dc2626" stroke-width="1.4"/>
<rect x="659.71" y="290.55" width="10.58" height="5.79" fill="#dc2626" opacity="0.82"/>
<line x1="683.89" y1="290.39" x2="683.89" y2="305.16" stroke="#dc2626" stroke-width="1.4"/>
<rect x="678.60" y="296.60" width="10.58" height="3.85" fill="#dc2626" opacity="0.82"/>
<line x1="702.78" y1="284.67" x2="702.78" y2="302.27" stroke="#16a34a" stroke-width="1.4"/>
<rect x="697.49" y="285.73" width="10.58" height="14.73" fill="#16a34a" opacity="0.82"/>
<line x1="721.67" y1="252.70" x2="721.67" y2="288.06" stroke="#16a34a" stroke-width="1.4"/>
<rect x="716.38" y="253.85" width="10.58" height="31.69" fill="#16a34a" opacity="0.82"/>
<line x1="740.56" y1="253.01" x2="740.56" y2="258.18" stroke="#dc2626" stroke-width="1.4"/>
<rect x="735.27" y="253.82" width="10.58" height="3.56" fill="#dc2626" opacity="0.82"/>
<line x1="70" y1="292.56" x2="750" y2="292.56" stroke="#2563eb" stroke-width="1.5" stroke-dasharray="4 4"/>
<text x="760" y="296.56" font-family="Arial" font-size="12" fill="#2563eb">Entry low 0.52486</text>
<line x1="70" y1="272.90" x2="750" y2="272.90" stroke="#2563eb" stroke-width="1.5" stroke-dasharray="4 4"/>
<text x="760" y="276.90" font-family="Arial" font-size="12" fill="#2563eb">Entry high 0.59645</text>
<line x1="70" y1="364.64" x2="750" y2="364.64" stroke="#dc2626" stroke-width="1.5"/>
<text x="760" y="368.64" font-family="Arial" font-size="12" fill="#dc2626">Stop 0.26241</text>
<line x1="70" y1="118.91" x2="750" y2="118.91" stroke="#16a34a" stroke-width="1.5"/>
<text x="760" y="122.91" font-family="Arial" font-size="12" fill="#16a34a">TP1 1.1571</text>
<line x1="70" y1="37.00" x2="750" y2="37.00" stroke="#15803d" stroke-width="1.5"/>
<text x="760" y="41.00" font-family="Arial" font-size="12" fill="#15803d">TP2 1.4554</text>
<line x1="70" y1="257.38" x2="750" y2="257.38" stroke="#111827" stroke-width="1.5" stroke-dasharray="2 3"/>
<text x="760" y="261.38" font-family="Arial" font-size="12" fill="#111827">Last 0.65297</text>
<text x="70" y="393" font-family="Arial" font-size="12" fill="#555">Candles: latest 36 x 4h Binance klines. Lines show entry zone, stop, TP1, TP2, and latest close.</text>
<text x="70" y="415" font-family="Arial" font-size="12" fill="#555">This chart is generated from locally fetched OHLCV, so you can compare it with Binance or TradingView manually.</text>
</svg>