<svg xmlns="http://www.w3.org/2000/svg" width="960" height="460" viewBox="0 0 960 460">
<rect width="100%" height="100%" fill="#ffffff"/>
<text x="70" y="22" font-family="Arial" font-size="16" font-weight="700">ETHUSDT 4h evidence chart</text>
<rect x="70" y="35" width="680" height="330" fill="#fafafa" stroke="#dddddd"/>
<line x1="70" y1="35.00" x2="750" y2="35.00" stroke="#eeeeee"/>
<text x="8" y="39.00" font-family="Arial" font-size="11" fill="#555">1,917.01</text>
<line x1="70" y1="117.50" x2="750" y2="117.50" stroke="#eeeeee"/>
<text x="8" y="121.50" font-family="Arial" font-size="11" fill="#555">1,857.27</text>
<line x1="70" y1="200.00" x2="750" y2="200.00" stroke="#eeeeee"/>
<text x="8" y="204.00" font-family="Arial" font-size="11" fill="#555">1,797.53</text>
<line x1="70" y1="282.50" x2="750" y2="282.50" stroke="#eeeeee"/>
<text x="8" y="286.50" font-family="Arial" font-size="11" fill="#555">1,737.80</text>
<line x1="70" y1="365.00" x2="750" y2="365.00" stroke="#eeeeee"/>
<text x="8" y="369.00" font-family="Arial" font-size="11" fill="#555">1,678.06</text>
<line x1="79.44" y1="324.84" x2="79.44" y2="353.35" stroke="#16a34a" stroke-width="1.4"/>
<rect x="74.16" y="334.49" width="10.58" height="4.27" fill="#16a34a" opacity="0.82"/>
<line x1="98.33" y1="325.47" x2="98.33" y2="345.57" stroke="#16a34a" stroke-width="1.4"/>
<rect x="93.04" y="333.91" width="10.58" height="1.50" fill="#16a34a" opacity="0.82"/>
<line x1="117.22" y1="308.50" x2="117.22" y2="341.99" stroke="#16a34a" stroke-width="1.4"/>
<rect x="111.93" y="325.82" width="10.58" height="8.09" fill="#16a34a" opacity="0.82"/>
<line x1="136.11" y1="304.02" x2="136.11" y2="331.55" stroke="#16a34a" stroke-width="1.4"/>
<rect x="130.82" y="310.16" width="10.58" height="15.66" fill="#16a34a" opacity="0.82"/>
<line x1="155.00" y1="267.03" x2="155.00" y2="313.04" stroke="#16a34a" stroke-width="1.4"/>
<rect x="149.71" y="275.95" width="10.58" height="34.21" fill="#16a34a" opacity="0.82"/>
<line x1="173.89" y1="261.10" x2="173.89" y2="294.66" stroke="#dc2626" stroke-width="1.4"/>
<rect x="168.60" y="275.95" width="10.58" height="15.61" fill="#dc2626" opacity="0.82"/>
<line x1="192.78" y1="261.50" x2="192.78" y2="296.21" stroke="#16a34a" stroke-width="1.4"/>
<rect x="187.49" y="272.03" width="10.58" height="19.53" fill="#16a34a" opacity="0.82"/>
<line x1="211.67" y1="230.04" x2="211.67" y2="274.47" stroke="#16a34a" stroke-width="1.4"/>
<rect x="206.38" y="254.31" width="10.58" height="17.70" fill="#16a34a" opacity="0.82"/>
<line x1="230.56" y1="246.31" x2="230.56" y2="273.81" stroke="#dc2626" stroke-width="1.4"/>
<rect x="225.27" y="254.29" width="10.58" height="5.94" fill="#dc2626" opacity="0.82"/>
<line x1="249.44" y1="245.47" x2="249.44" y2="263.27" stroke="#16a34a" stroke-width="1.4"/>
<rect x="244.16" y="254.34" width="10.58" height="5.91" fill="#16a34a" opacity="0.82"/>
<line x1="268.33" y1="244.17" x2="268.33" y2="258.74" stroke="#16a34a" stroke-width="1.4"/>
<rect x="263.04" y="254.27" width="10.58" height="1.50" fill="#16a34a" opacity="0.82"/>
<line x1="287.22" y1="196.71" x2="287.22" y2="254.28" stroke="#16a34a" stroke-width="1.4"/>
<rect x="281.93" y="208.90" width="10.58" height="45.38" fill="#16a34a" opacity="0.82"/>
<line x1="306.11" y1="186.03" x2="306.11" y2="225.60" stroke="#16a34a" stroke-width="1.4"/>
<rect x="300.82" y="206.50" width="10.58" height="2.42" fill="#16a34a" opacity="0.82"/>
<line x1="325.00" y1="202.38" x2="325.00" y2="235.13" stroke="#dc2626" stroke-width="1.4"/>
<rect x="319.71" y="206.50" width="10.58" height="16.83" fill="#dc2626" opacity="0.82"/>
<line x1="343.89" y1="223.18" x2="343.89" y2="255.98" stroke="#dc2626" stroke-width="1.4"/>
<rect x="338.60" y="223.33" width="10.58" height="26.31" fill="#dc2626" opacity="0.82"/>
<line x1="362.78" y1="234.31" x2="362.78" y2="251.74" stroke="#16a34a" stroke-width="1.4"/>
<rect x="357.49" y="237.89" width="10.58" height="11.77" fill="#16a34a" opacity="0.82"/>
<line x1="381.67" y1="233.51" x2="381.67" y2="267.32" stroke="#dc2626" stroke-width="1.4"/>
<rect x="376.38" y="237.90" width="10.58" height="13.82" fill="#dc2626" opacity="0.82"/>
<line x1="400.56" y1="222.45" x2="400.56" y2="257.32" stroke="#16a34a" stroke-width="1.4"/>
<rect x="395.27" y="231.58" width="10.58" height="20.15" fill="#16a34a" opacity="0.82"/>
<line x1="419.44" y1="215.61" x2="419.44" y2="237.60" stroke="#16a34a" stroke-width="1.4"/>
<rect x="414.16" y="222.24" width="10.58" height="9.35" fill="#16a34a" opacity="0.82"/>
<line x1="438.33" y1="185.55" x2="438.33" y2="239.01" stroke="#16a34a" stroke-width="1.4"/>
<rect x="433.04" y="216.41" width="10.58" height="5.81" fill="#16a34a" opacity="0.82"/>
<line x1="457.22" y1="197.95" x2="457.22" y2="234.96" stroke="#dc2626" stroke-width="1.4"/>
<rect x="451.93" y="216.41" width="10.58" height="8.20" fill="#dc2626" opacity="0.82"/>
<line x1="476.11" y1="217.60" x2="476.11" y2="245.73" stroke="#dc2626" stroke-width="1.4"/>
<rect x="470.82" y="224.63" width="10.58" height="10.19" fill="#dc2626" opacity="0.82"/>
<line x1="495.00" y1="226.15" x2="495.00" y2="257.68" stroke="#dc2626" stroke-width="1.4"/>
<rect x="489.71" y="234.82" width="10.58" height="17.51" fill="#dc2626" opacity="0.82"/>
<line x1="513.89" y1="211.84" x2="513.89" y2="294.72" stroke="#16a34a" stroke-width="1.4"/>
<rect x="508.60" y="212.38" width="10.58" height="39.95" fill="#16a34a" opacity="0.82"/>
<line x1="532.78" y1="189.69" x2="532.78" y2="220.87" stroke="#16a34a" stroke-width="1.4"/>
<rect x="527.49" y="206.59" width="10.58" height="5.79" fill="#16a34a" opacity="0.82"/>
<line x1="551.67" y1="150.47" x2="551.67" y2="214.19" stroke="#16a34a" stroke-width="1.4"/>
<rect x="546.38" y="197.20" width="10.58" height="9.39" fill="#16a34a" opacity="0.82"/>
<line x1="570.56" y1="182.56" x2="570.56" y2="239.61" stroke="#dc2626" stroke-width="1.4"/>
<rect x="565.27" y="197.20" width="10.58" height="38.67" fill="#dc2626" opacity="0.82"/>
<line x1="589.44" y1="220.64" x2="589.44" y2="255.19" stroke="#dc2626" stroke-width="1.4"/>
<rect x="584.16" y="235.88" width="10.58" height="1.50" fill="#dc2626" opacity="0.82"/>
<line x1="608.33" y1="217.31" x2="608.33" y2="240.28" stroke="#16a34a" stroke-width="1.4"/>
<rect x="603.04" y="223.15" width="10.58" height="13.17" fill="#16a34a" opacity="0.82"/>
<line x1="627.22" y1="192.41" x2="627.22" y2="250.19" stroke="#16a34a" stroke-width="1.4"/>
<rect x="621.93" y="200.12" width="10.58" height="23.04" fill="#16a34a" opacity="0.82"/>
<line x1="646.11" y1="178.42" x2="646.11" y2="233.19" stroke="#dc2626" stroke-width="1.4"/>
<rect x="640.82" y="200.12" width="10.58" height="9.67" fill="#dc2626" opacity="0.82"/>
<line x1="665.00" y1="206.10" x2="665.00" y2="244.45" stroke="#dc2626" stroke-width="1.4"/>
<rect x="659.71" y="209.77" width="10.58" height="26.25" fill="#dc2626" opacity="0.82"/>
<line x1="683.89" y1="217.31" x2="683.89" y2="277.78" stroke="#dc2626" stroke-width="1.4"/>
<rect x="678.60" y="236.02" width="10.58" height="27.16" fill="#dc2626" opacity="0.82"/>
<line x1="702.78" y1="252.26" x2="702.78" y2="272.54" stroke="#16a34a" stroke-width="1.4"/>
<rect x="697.49" y="256.39" width="10.58" height="6.85" fill="#16a34a" opacity="0.82"/>
<line x1="721.67" y1="253.63" x2="721.67" y2="299.92" stroke="#dc2626" stroke-width="1.4"/>
<rect x="716.38" y="256.39" width="10.58" height="12.08" fill="#dc2626" opacity="0.82"/>
<line x1="740.56" y1="268.32" x2="740.56" y2="272.23" stroke="#dc2626" stroke-width="1.4"/>
<rect x="735.27" y="268.48" width="10.58" height="1.50" fill="#dc2626" opacity="0.82"/>
<line x1="70" y1="285.51" x2="750" y2="285.51" stroke="#2563eb" stroke-width="1.5" stroke-dasharray="4 4"/>
<text x="760" y="289.51" font-family="Arial" font-size="12" fill="#2563eb">Entry low 1,735.61</text>
<line x1="70" y1="261.69" x2="750" y2="261.69" stroke="#2563eb" stroke-width="1.5" stroke-dasharray="4 4"/>
<text x="760" y="265.69" font-family="Arial" font-size="12" fill="#2563eb">Entry high 1,752.86</text>
<line x1="70" y1="335.66" x2="750" y2="335.66" stroke="#dc2626" stroke-width="1.5"/>
<text x="760" y="339.66" font-family="Arial" font-size="12" fill="#dc2626">Stop 1,699.30</text>
<line x1="70" y1="149.49" x2="750" y2="149.49" stroke="#16a34a" stroke-width="1.5"/>
<text x="760" y="153.49" font-family="Arial" font-size="12" fill="#16a34a">TP1 1,834.11</text>
<line x1="70" y1="48.17" x2="750" y2="48.17" stroke="#15803d" stroke-width="1.5"/>
<text x="760" y="52.17" font-family="Arial" font-size="12" fill="#15803d">TP2 1,907.47</text>
<line x1="70" y1="268.93" x2="750" y2="268.93" stroke="#111827" stroke-width="1.5" stroke-dasharray="2 3"/>
<text x="760" y="272.93" font-family="Arial" font-size="12" fill="#111827">Last 1,747.62</text>
<text x="70" y="393" font-family="Arial" font-size="12" fill="#555">Candles: latest 36 x 4h Binance klines. Lines show entry zone, stop, TP1, TP2, and latest close.</text>
<text x="70" y="415" font-family="Arial" font-size="12" fill="#555">This chart is generated from locally fetched OHLCV, so you can compare it with Binance or TradingView manually.</text>
</svg>