<svg xmlns="http://www.w3.org/2000/svg" width="960" height="460" viewBox="0 0 960 460">
<rect width="100%" height="100%" fill="#ffffff"/>
<text x="70" y="22" font-family="Arial" font-size="16" font-weight="700">BNBUSDT 4h evidence chart</text>
<rect x="70" y="35" width="680" height="330" fill="#fafafa" stroke="#dddddd"/>
<line x1="70" y1="35.00" x2="750" y2="35.00" stroke="#eeeeee"/>
<text x="8" y="39.00" font-family="Arial" font-size="11" fill="#555">612.71</text>
<line x1="70" y1="117.50" x2="750" y2="117.50" stroke="#eeeeee"/>
<text x="8" y="121.50" font-family="Arial" font-size="11" fill="#555">597.32</text>
<line x1="70" y1="200.00" x2="750" y2="200.00" stroke="#eeeeee"/>
<text x="8" y="204.00" font-family="Arial" font-size="11" fill="#555">581.94</text>
<line x1="70" y1="282.50" x2="750" y2="282.50" stroke="#eeeeee"/>
<text x="8" y="286.50" font-family="Arial" font-size="11" fill="#555">566.55</text>
<line x1="70" y1="365.00" x2="750" y2="365.00" stroke="#eeeeee"/>
<text x="8" y="369.00" font-family="Arial" font-size="11" fill="#555">551.16</text>
<line x1="79.44" y1="275.42" x2="79.44" y2="308.83" stroke="#16a34a" stroke-width="1.4"/>
<rect x="74.16" y="280.41" width="10.58" height="24.56" fill="#16a34a" opacity="0.82"/>
<line x1="98.33" y1="269.47" x2="98.33" y2="292.04" stroke="#16a34a" stroke-width="1.4"/>
<rect x="93.04" y="271.19" width="10.58" height="9.17" fill="#16a34a" opacity="0.82"/>
<line x1="117.22" y1="248.93" x2="117.22" y2="288.24" stroke="#dc2626" stroke-width="1.4"/>
<rect x="111.93" y="271.19" width="10.58" height="2.14" fill="#dc2626" opacity="0.82"/>
<line x1="136.11" y1="225.66" x2="136.11" y2="276.55" stroke="#16a34a" stroke-width="1.4"/>
<rect x="130.82" y="249.31" width="10.58" height="24.02" fill="#16a34a" opacity="0.82"/>
<line x1="155.00" y1="245.12" x2="155.00" y2="269.74" stroke="#dc2626" stroke-width="1.4"/>
<rect x="149.71" y="249.31" width="10.58" height="15.93" fill="#dc2626" opacity="0.82"/>
<line x1="173.89" y1="247.91" x2="173.89" y2="274.35" stroke="#16a34a" stroke-width="1.4"/>
<rect x="168.60" y="258.48" width="10.58" height="6.76" fill="#16a34a" opacity="0.82"/>
<line x1="192.78" y1="244.32" x2="192.78" y2="267.75" stroke="#dc2626" stroke-width="1.4"/>
<rect x="187.49" y="258.53" width="10.58" height="4.08" fill="#dc2626" opacity="0.82"/>
<line x1="211.67" y1="257.51" x2="211.67" y2="271.40" stroke="#dc2626" stroke-width="1.4"/>
<rect x="206.38" y="262.61" width="10.58" height="8.26" fill="#dc2626" opacity="0.82"/>
<line x1="230.56" y1="228.13" x2="230.56" y2="274.62" stroke="#16a34a" stroke-width="1.4"/>
<rect x="225.27" y="234.40" width="10.58" height="36.41" fill="#16a34a" opacity="0.82"/>
<line x1="249.44" y1="220.35" x2="249.44" y2="243.30" stroke="#dc2626" stroke-width="1.4"/>
<rect x="244.16" y="234.40" width="10.58" height="8.15" fill="#dc2626" opacity="0.82"/>
<line x1="268.33" y1="222.92" x2="268.33" y2="242.93" stroke="#16a34a" stroke-width="1.4"/>
<rect x="263.04" y="234.02" width="10.58" height="8.53" fill="#16a34a" opacity="0.82"/>
<line x1="287.22" y1="226.46" x2="287.22" y2="265.98" stroke="#dc2626" stroke-width="1.4"/>
<rect x="281.93" y="233.97" width="10.58" height="9.33" fill="#dc2626" opacity="0.82"/>
<line x1="306.11" y1="219.44" x2="306.11" y2="243.30" stroke="#16a34a" stroke-width="1.4"/>
<rect x="300.82" y="231.88" width="10.58" height="11.42" fill="#16a34a" opacity="0.82"/>
<line x1="325.00" y1="226.41" x2="325.00" y2="238.85" stroke="#dc2626" stroke-width="1.4"/>
<rect x="319.71" y="231.88" width="10.58" height="3.00" fill="#dc2626" opacity="0.82"/>
<line x1="343.89" y1="231.45" x2="343.89" y2="247.59" stroke="#dc2626" stroke-width="1.4"/>
<rect x="338.60" y="234.83" width="10.58" height="2.84" fill="#dc2626" opacity="0.82"/>
<line x1="362.78" y1="222.60" x2="362.78" y2="240.89" stroke="#16a34a" stroke-width="1.4"/>
<rect x="357.49" y="226.89" width="10.58" height="10.72" fill="#16a34a" opacity="0.82"/>
<line x1="381.67" y1="211.24" x2="381.67" y2="228.56" stroke="#16a34a" stroke-width="1.4"/>
<rect x="376.38" y="213.65" width="10.58" height="13.24" fill="#16a34a" opacity="0.82"/>
<line x1="400.56" y1="194.24" x2="400.56" y2="222.12" stroke="#16a34a" stroke-width="1.4"/>
<rect x="395.27" y="211.13" width="10.58" height="2.52" fill="#16a34a" opacity="0.82"/>
<line x1="419.44" y1="202.23" x2="419.44" y2="214.51" stroke="#16a34a" stroke-width="1.4"/>
<rect x="414.16" y="207.37" width="10.58" height="3.70" fill="#16a34a" opacity="0.82"/>
<line x1="438.33" y1="199.22" x2="438.33" y2="239.07" stroke="#dc2626" stroke-width="1.4"/>
<rect x="433.04" y="207.32" width="10.58" height="31.74" fill="#dc2626" opacity="0.82"/>
<line x1="457.22" y1="232.42" x2="457.22" y2="262.39" stroke="#16a34a" stroke-width="1.4"/>
<rect x="451.93" y="235.10" width="10.58" height="3.97" fill="#16a34a" opacity="0.82"/>
<line x1="476.11" y1="232.42" x2="476.11" y2="263.30" stroke="#dc2626" stroke-width="1.4"/>
<rect x="470.82" y="235.04" width="10.58" height="16.25" fill="#dc2626" opacity="0.82"/>
<line x1="495.00" y1="207.54" x2="495.00" y2="251.88" stroke="#16a34a" stroke-width="1.4"/>
<rect x="489.71" y="209.47" width="10.58" height="41.83" fill="#16a34a" opacity="0.82"/>
<line x1="513.89" y1="185.55" x2="513.89" y2="213.81" stroke="#16a34a" stroke-width="1.4"/>
<rect x="508.60" y="204.48" width="10.58" height="4.93" fill="#16a34a" opacity="0.82"/>
<line x1="532.78" y1="199.28" x2="532.78" y2="216.38" stroke="#dc2626" stroke-width="1.4"/>
<rect x="527.49" y="204.53" width="10.58" height="6.60" fill="#dc2626" opacity="0.82"/>
<line x1="551.67" y1="210.59" x2="551.67" y2="248.50" stroke="#dc2626" stroke-width="1.4"/>
<rect x="546.38" y="211.07" width="10.58" height="31.96" fill="#dc2626" opacity="0.82"/>
<line x1="570.56" y1="210.97" x2="570.56" y2="281.86" stroke="#dc2626" stroke-width="1.4"/>
<rect x="565.27" y="243.03" width="10.58" height="26.11" fill="#dc2626" opacity="0.82"/>
<line x1="589.44" y1="260.89" x2="589.44" y2="283.95" stroke="#16a34a" stroke-width="1.4"/>
<rect x="584.16" y="263.41" width="10.58" height="5.68" fill="#16a34a" opacity="0.82"/>
<line x1="608.33" y1="258.10" x2="608.33" y2="272.31" stroke="#dc2626" stroke-width="1.4"/>
<rect x="603.04" y="263.41" width="10.58" height="2.41" fill="#dc2626" opacity="0.82"/>
<line x1="627.22" y1="254.46" x2="627.22" y2="287.54" stroke="#dc2626" stroke-width="1.4"/>
<rect x="621.93" y="265.77" width="10.58" height="5.09" fill="#dc2626" opacity="0.82"/>
<line x1="646.11" y1="270.01" x2="646.11" y2="304.91" stroke="#dc2626" stroke-width="1.4"/>
<rect x="640.82" y="270.86" width="10.58" height="13.03" fill="#dc2626" opacity="0.82"/>
<line x1="665.00" y1="277.41" x2="665.00" y2="299.87" stroke="#16a34a" stroke-width="1.4"/>
<rect x="659.71" y="277.46" width="10.58" height="6.43" fill="#16a34a" opacity="0.82"/>
<line x1="683.89" y1="260.94" x2="683.89" y2="281.48" stroke="#16a34a" stroke-width="1.4"/>
<rect x="678.60" y="264.11" width="10.58" height="13.30" fill="#16a34a" opacity="0.82"/>
<line x1="702.78" y1="254.99" x2="702.78" y2="269.74" stroke="#16a34a" stroke-width="1.4"/>
<rect x="697.49" y="263.20" width="10.58" height="1.50" fill="#16a34a" opacity="0.82"/>
<line x1="721.67" y1="254.67" x2="721.67" y2="268.61" stroke="#16a34a" stroke-width="1.4"/>
<rect x="716.38" y="258.85" width="10.58" height="4.29" fill="#16a34a" opacity="0.82"/>
<line x1="740.56" y1="257.57" x2="740.56" y2="259.66" stroke="#dc2626" stroke-width="1.4"/>
<rect x="735.27" y="258.85" width="10.58" height="1.50" fill="#dc2626" opacity="0.82"/>
<line x1="70" y1="298.88" x2="750" y2="298.88" stroke="#2563eb" stroke-width="1.5" stroke-dasharray="4 4"/>
<text x="760" y="302.88" font-family="Arial" font-size="12" fill="#2563eb">Entry low 563.49</text>
<line x1="70" y1="286.04" x2="750" y2="286.04" stroke="#2563eb" stroke-width="1.5" stroke-dasharray="4 4"/>
<text x="760" y="290.04" font-family="Arial" font-size="12" fill="#2563eb">Entry high 565.89</text>
<line x1="70" y1="350.15" x2="750" y2="350.15" stroke="#dc2626" stroke-width="1.5"/>
<text x="760" y="354.15" font-family="Arial" font-size="12" fill="#dc2626">Stop 553.93</text>
<line x1="70" y1="177.08" x2="750" y2="177.08" stroke="#16a34a" stroke-width="1.5"/>
<text x="760" y="181.08" font-family="Arial" font-size="12" fill="#16a34a">TP1 586.21</text>
<line x1="70" y1="51.35" x2="750" y2="51.35" stroke="#15803d" stroke-width="1.5"/>
<text x="760" y="55.35" font-family="Arial" font-size="12" fill="#15803d">TP2 609.66</text>
<line x1="70" y1="259.60" x2="750" y2="259.60" stroke="#111827" stroke-width="1.5" stroke-dasharray="2 3"/>
<text x="760" y="263.60" font-family="Arial" font-size="12" fill="#111827">Last 570.82</text>
<text x="70" y="393" font-family="Arial" font-size="12" fill="#555">Candles: latest 36 x 4h Binance klines. Lines show entry zone, stop, TP1, TP2, and latest close.</text>
<text x="70" y="415" font-family="Arial" font-size="12" fill="#555">This chart is generated from locally fetched OHLCV, so you can compare it with Binance or TradingView manually.</text>
</svg>