<svg xmlns="http://www.w3.org/2000/svg" width="960" height="460" viewBox="0 0 960 460">
<rect width="100%" height="100%" fill="#ffffff"/>
<text x="70" y="22" font-family="Arial" font-size="16" font-weight="700">NEARUSDT 4h evidence chart</text>
<rect x="70" y="35" width="680" height="330" fill="#fafafa" stroke="#dddddd"/>
<line x1="70" y1="35.00" x2="750" y2="35.00" stroke="#eeeeee"/>
<text x="8" y="39.00" font-family="Arial" font-size="11" fill="#555">2.6848</text>
<line x1="70" y1="117.50" x2="750" y2="117.50" stroke="#eeeeee"/>
<text x="8" y="121.50" font-family="Arial" font-size="11" fill="#555">2.4686</text>
<line x1="70" y1="200.00" x2="750" y2="200.00" stroke="#eeeeee"/>
<text x="8" y="204.00" font-family="Arial" font-size="11" fill="#555">2.2524</text>
<line x1="70" y1="282.50" x2="750" y2="282.50" stroke="#eeeeee"/>
<text x="8" y="286.50" font-family="Arial" font-size="11" fill="#555">2.0362</text>
<line x1="70" y1="365.00" x2="750" y2="365.00" stroke="#eeeeee"/>
<text x="8" y="369.00" font-family="Arial" font-size="11" fill="#555">1.8200</text>
<line x1="79.44" y1="318.44" x2="79.44" y2="332.56" stroke="#16a34a" stroke-width="1.4"/>
<rect x="74.16" y="326.84" width="10.58" height="2.29" fill="#16a34a" opacity="0.82"/>
<line x1="98.33" y1="322.64" x2="98.33" y2="329.13" stroke="#dc2626" stroke-width="1.4"/>
<rect x="93.04" y="326.46" width="10.58" height="1.50" fill="#dc2626" opacity="0.82"/>
<line x1="117.22" y1="308.90" x2="117.22" y2="333.33" stroke="#16a34a" stroke-width="1.4"/>
<rect x="111.93" y="318.06" width="10.58" height="8.78" fill="#16a34a" opacity="0.82"/>
<line x1="136.11" y1="316.92" x2="136.11" y2="324.55" stroke="#dc2626" stroke-width="1.4"/>
<rect x="130.82" y="318.44" width="10.58" height="3.82" fill="#dc2626" opacity="0.82"/>
<line x1="155.00" y1="314.25" x2="155.00" y2="322.64" stroke="#16a34a" stroke-width="1.4"/>
<rect x="149.71" y="321.12" width="10.58" height="1.50" fill="#16a34a" opacity="0.82"/>
<line x1="173.89" y1="319.59" x2="173.89" y2="342.87" stroke="#dc2626" stroke-width="1.4"/>
<rect x="168.60" y="321.12" width="10.58" height="13.74" fill="#dc2626" opacity="0.82"/>
<line x1="192.78" y1="331.42" x2="192.78" y2="350.50" stroke="#dc2626" stroke-width="1.4"/>
<rect x="187.49" y="334.85" width="10.58" height="8.78" fill="#dc2626" opacity="0.82"/>
<line x1="211.67" y1="334.85" x2="211.67" y2="347.45" stroke="#16a34a" stroke-width="1.4"/>
<rect x="206.38" y="337.14" width="10.58" height="6.49" fill="#16a34a" opacity="0.82"/>
<line x1="230.56" y1="327.22" x2="230.56" y2="339.43" stroke="#16a34a" stroke-width="1.4"/>
<rect x="225.27" y="330.27" width="10.58" height="7.25" fill="#16a34a" opacity="0.82"/>
<line x1="249.44" y1="328.75" x2="249.44" y2="342.87" stroke="#dc2626" stroke-width="1.4"/>
<rect x="244.16" y="329.89" width="10.58" height="11.07" fill="#dc2626" opacity="0.82"/>
<line x1="268.33" y1="332.56" x2="268.33" y2="343.25" stroke="#16a34a" stroke-width="1.4"/>
<rect x="263.04" y="333.33" width="10.58" height="7.63" fill="#16a34a" opacity="0.82"/>
<line x1="287.22" y1="325.31" x2="287.22" y2="337.52" stroke="#16a34a" stroke-width="1.4"/>
<rect x="281.93" y="332.56" width="10.58" height="1.50" fill="#16a34a" opacity="0.82"/>
<line x1="306.11" y1="329.89" x2="306.11" y2="337.91" stroke="#dc2626" stroke-width="1.4"/>
<rect x="300.82" y="332.56" width="10.58" height="1.50" fill="#dc2626" opacity="0.82"/>
<line x1="325.00" y1="327.22" x2="325.00" y2="347.83" stroke="#dc2626" stroke-width="1.4"/>
<rect x="319.71" y="333.33" width="10.58" height="12.97" fill="#dc2626" opacity="0.82"/>
<line x1="343.89" y1="337.91" x2="343.89" y2="350.88" stroke="#16a34a" stroke-width="1.4"/>
<rect x="338.60" y="338.29" width="10.58" height="8.40" fill="#16a34a" opacity="0.82"/>
<line x1="362.78" y1="336.38" x2="362.78" y2="349.35" stroke="#dc2626" stroke-width="1.4"/>
<rect x="357.49" y="338.29" width="10.58" height="5.34" fill="#dc2626" opacity="0.82"/>
<line x1="381.67" y1="336.38" x2="381.67" y2="345.92" stroke="#16a34a" stroke-width="1.4"/>
<rect x="376.38" y="337.91" width="10.58" height="5.72" fill="#16a34a" opacity="0.82"/>
<line x1="400.56" y1="330.27" x2="400.56" y2="341.72" stroke="#16a34a" stroke-width="1.4"/>
<rect x="395.27" y="334.47" width="10.58" height="3.82" fill="#16a34a" opacity="0.82"/>
<line x1="419.44" y1="320.35" x2="419.44" y2="337.52" stroke="#16a34a" stroke-width="1.4"/>
<rect x="414.16" y="321.88" width="10.58" height="12.59" fill="#16a34a" opacity="0.82"/>
<line x1="438.33" y1="319.59" x2="438.33" y2="340.58" stroke="#dc2626" stroke-width="1.4"/>
<rect x="433.04" y="321.50" width="10.58" height="17.17" fill="#dc2626" opacity="0.82"/>
<line x1="457.22" y1="321.50" x2="457.22" y2="349.74" stroke="#dc2626" stroke-width="1.4"/>
<rect x="451.93" y="338.67" width="10.58" height="8.40" fill="#dc2626" opacity="0.82"/>
<line x1="476.11" y1="326.08" x2="476.11" y2="350.88" stroke="#16a34a" stroke-width="1.4"/>
<rect x="470.82" y="330.27" width="10.58" height="16.79" fill="#16a34a" opacity="0.82"/>
<line x1="495.00" y1="322.26" x2="495.00" y2="331.80" stroke="#16a34a" stroke-width="1.4"/>
<rect x="489.71" y="329.13" width="10.58" height="1.50" fill="#16a34a" opacity="0.82"/>
<line x1="513.89" y1="305.09" x2="513.89" y2="338.67" stroke="#16a34a" stroke-width="1.4"/>
<rect x="508.60" y="319.97" width="10.58" height="8.78" fill="#16a34a" opacity="0.82"/>
<line x1="532.78" y1="310.43" x2="532.78" y2="339.05" stroke="#dc2626" stroke-width="1.4"/>
<rect x="527.49" y="319.97" width="10.58" height="8.40" fill="#dc2626" opacity="0.82"/>
<line x1="551.67" y1="326.08" x2="551.67" y2="343.25" stroke="#16a34a" stroke-width="1.4"/>
<rect x="546.38" y="326.08" width="10.58" height="2.67" fill="#16a34a" opacity="0.82"/>
<line x1="570.56" y1="307.76" x2="570.56" y2="329.13" stroke="#16a34a" stroke-width="1.4"/>
<rect x="565.27" y="311.19" width="10.58" height="14.50" fill="#16a34a" opacity="0.82"/>
<line x1="589.44" y1="290.97" x2="589.44" y2="313.86" stroke="#16a34a" stroke-width="1.4"/>
<rect x="584.16" y="298.98" width="10.58" height="12.21" fill="#16a34a" opacity="0.82"/>
<line x1="608.33" y1="292.49" x2="608.33" y2="308.52" stroke="#dc2626" stroke-width="1.4"/>
<rect x="603.04" y="299.36" width="10.58" height="1.50" fill="#dc2626" opacity="0.82"/>
<line x1="627.22" y1="271.12" x2="627.22" y2="305.47" stroke="#16a34a" stroke-width="1.4"/>
<rect x="621.93" y="278.76" width="10.58" height="21.75" fill="#16a34a" opacity="0.82"/>
<line x1="646.11" y1="278.38" x2="646.11" y2="289.44" stroke="#dc2626" stroke-width="1.4"/>
<rect x="640.82" y="278.76" width="10.58" height="8.78" fill="#dc2626" opacity="0.82"/>
<line x1="665.00" y1="284.86" x2="665.00" y2="295.55" stroke="#dc2626" stroke-width="1.4"/>
<rect x="659.71" y="287.53" width="10.58" height="3.82" fill="#dc2626" opacity="0.82"/>
<line x1="683.89" y1="285.63" x2="683.89" y2="295.93" stroke="#16a34a" stroke-width="1.4"/>
<rect x="678.60" y="287.92" width="10.58" height="3.43" fill="#16a34a" opacity="0.82"/>
<line x1="702.78" y1="280.28" x2="702.78" y2="295.55" stroke="#dc2626" stroke-width="1.4"/>
<rect x="697.49" y="288.30" width="10.58" height="5.34" fill="#dc2626" opacity="0.82"/>
<line x1="721.67" y1="260.44" x2="721.67" y2="296.69" stroke="#16a34a" stroke-width="1.4"/>
<rect x="716.38" y="265.78" width="10.58" height="27.48" fill="#16a34a" opacity="0.82"/>
<line x1="740.56" y1="262.73" x2="740.56" y2="269.22" stroke="#dc2626" stroke-width="1.4"/>
<rect x="735.27" y="265.78" width="10.58" height="2.67" fill="#dc2626" opacity="0.82"/>
<line x1="70" y1="288.97" x2="750" y2="288.97" stroke="#2563eb" stroke-width="1.5" stroke-dasharray="4 4"/>
<text x="760" y="292.97" font-family="Arial" font-size="12" fill="#2563eb">Entry low 2.0192</text>
<line x1="70" y1="273.34" x2="750" y2="273.34" stroke="#2563eb" stroke-width="1.5" stroke-dasharray="4 4"/>
<text x="760" y="277.34" font-family="Arial" font-size="12" fill="#2563eb">Entry high 2.0602</text>
<line x1="70" y1="361.51" x2="750" y2="361.51" stroke="#dc2626" stroke-width="1.5"/>
<text x="760" y="365.51" font-family="Arial" font-size="12" fill="#dc2626">Stop 1.8291</text>
<line x1="70" y1="120.45" x2="750" y2="120.45" stroke="#16a34a" stroke-width="1.5"/>
<text x="760" y="124.45" font-family="Arial" font-size="12" fill="#16a34a">TP1 2.4608</text>
<line x1="70" y1="40.10" x2="750" y2="40.10" stroke="#15803d" stroke-width="1.5"/>
<text x="760" y="44.10" font-family="Arial" font-size="12" fill="#15803d">TP2 2.6714</text>
<line x1="70" y1="268.45" x2="750" y2="268.45" stroke="#111827" stroke-width="1.5" stroke-dasharray="2 3"/>
<text x="760" y="272.45" font-family="Arial" font-size="12" fill="#111827">Last 2.0730</text>
<text x="70" y="393" font-family="Arial" font-size="12" fill="#555">Candles: latest 36 x 4h Binance klines. Lines show entry zone, stop, TP1, TP2, and latest close.</text>
<text x="70" y="415" font-family="Arial" font-size="12" fill="#555">This chart is generated from locally fetched OHLCV, so you can compare it with Binance or TradingView manually.</text>
</svg>