<svg xmlns="http://www.w3.org/2000/svg" width="960" height="460" viewBox="0 0 960 460">
<rect width="100%" height="100%" fill="#ffffff"/>
<text x="70" y="22" font-family="Arial" font-size="16" font-weight="700">BNBUSDT 4h evidence chart</text>
<rect x="70" y="35" width="680" height="330" fill="#fafafa" stroke="#dddddd"/>
<line x1="70" y1="35.00" x2="750" y2="35.00" stroke="#eeeeee"/>
<text x="8" y="39.00" font-family="Arial" font-size="11" fill="#555">671.26</text>
<line x1="70" y1="117.50" x2="750" y2="117.50" stroke="#eeeeee"/>
<text x="8" y="121.50" font-family="Arial" font-size="11" fill="#555">641.87</text>
<line x1="70" y1="200.00" x2="750" y2="200.00" stroke="#eeeeee"/>
<text x="8" y="204.00" font-family="Arial" font-size="11" fill="#555">612.47</text>
<line x1="70" y1="282.50" x2="750" y2="282.50" stroke="#eeeeee"/>
<text x="8" y="286.50" font-family="Arial" font-size="11" fill="#555">583.07</text>
<line x1="70" y1="365.00" x2="750" y2="365.00" stroke="#eeeeee"/>
<text x="8" y="369.00" font-family="Arial" font-size="11" fill="#555">553.68</text>
<line x1="79.44" y1="227.00" x2="79.44" y2="317.48" stroke="#dc2626" stroke-width="1.4"/>
<rect x="74.16" y="246.90" width="10.58" height="7.02" fill="#dc2626" opacity="0.82"/>
<line x1="98.33" y1="243.42" x2="98.33" y2="275.41" stroke="#dc2626" stroke-width="1.4"/>
<rect x="93.04" y="253.91" width="10.58" height="8.84" fill="#dc2626" opacity="0.82"/>
<line x1="117.22" y1="245.47" x2="117.22" y2="306.11" stroke="#dc2626" stroke-width="1.4"/>
<rect x="111.93" y="262.73" width="10.58" height="31.91" fill="#dc2626" opacity="0.82"/>
<line x1="136.11" y1="282.71" x2="136.11" y2="357.19" stroke="#dc2626" stroke-width="1.4"/>
<rect x="130.82" y="294.64" width="10.58" height="32.05" fill="#dc2626" opacity="0.82"/>
<line x1="155.00" y1="292.81" x2="155.00" y2="338.30" stroke="#16a34a" stroke-width="1.4"/>
<rect x="149.71" y="312.96" width="10.58" height="13.86" fill="#16a34a" opacity="0.82"/>
<line x1="173.89" y1="291.97" x2="173.89" y2="317.51" stroke="#16a34a" stroke-width="1.4"/>
<rect x="168.60" y="310.41" width="10.58" height="2.69" fill="#16a34a" opacity="0.82"/>
<line x1="192.78" y1="286.69" x2="192.78" y2="348.15" stroke="#16a34a" stroke-width="1.4"/>
<rect x="187.49" y="293.77" width="10.58" height="16.64" fill="#16a34a" opacity="0.82"/>
<line x1="211.67" y1="278.69" x2="211.67" y2="316.25" stroke="#dc2626" stroke-width="1.4"/>
<rect x="206.38" y="293.77" width="10.58" height="14.03" fill="#dc2626" opacity="0.82"/>
<line x1="230.56" y1="298.42" x2="230.56" y2="316.27" stroke="#16a34a" stroke-width="1.4"/>
<rect x="225.27" y="302.75" width="10.58" height="5.02" fill="#16a34a" opacity="0.82"/>
<line x1="249.44" y1="297.69" x2="249.44" y2="315.68" stroke="#dc2626" stroke-width="1.4"/>
<rect x="244.16" y="302.75" width="10.58" height="5.98" fill="#dc2626" opacity="0.82"/>
<line x1="268.33" y1="299.94" x2="268.33" y2="316.58" stroke="#16a34a" stroke-width="1.4"/>
<rect x="263.04" y="306.48" width="10.58" height="2.22" fill="#16a34a" opacity="0.82"/>
<line x1="287.22" y1="286.52" x2="287.22" y2="309.09" stroke="#16a34a" stroke-width="1.4"/>
<rect x="281.93" y="288.04" width="10.58" height="18.41" fill="#16a34a" opacity="0.82"/>
<line x1="306.11" y1="263.06" x2="306.11" y2="296.74" stroke="#16a34a" stroke-width="1.4"/>
<rect x="300.82" y="263.99" width="10.58" height="24.08" fill="#16a34a" opacity="0.82"/>
<line x1="325.00" y1="237.80" x2="325.00" y2="270.22" stroke="#16a34a" stroke-width="1.4"/>
<rect x="319.71" y="253.58" width="10.58" height="10.41" fill="#16a34a" opacity="0.82"/>
<line x1="343.89" y1="251.86" x2="343.89" y2="275.05" stroke="#dc2626" stroke-width="1.4"/>
<rect x="338.60" y="253.60" width="10.58" height="5.19" fill="#dc2626" opacity="0.82"/>
<line x1="362.78" y1="241.59" x2="362.78" y2="272.32" stroke="#dc2626" stroke-width="1.4"/>
<rect x="357.49" y="258.77" width="10.58" height="8.17" fill="#dc2626" opacity="0.82"/>
<line x1="381.67" y1="205.42" x2="381.67" y2="269.24" stroke="#16a34a" stroke-width="1.4"/>
<rect x="376.38" y="222.54" width="10.58" height="44.34" fill="#16a34a" opacity="0.82"/>
<line x1="400.56" y1="211.45" x2="400.56" y2="237.80" stroke="#dc2626" stroke-width="1.4"/>
<rect x="395.27" y="222.54" width="10.58" height="3.06" fill="#dc2626" opacity="0.82"/>
<line x1="419.44" y1="224.61" x2="419.44" y2="258.71" stroke="#dc2626" stroke-width="1.4"/>
<rect x="414.16" y="225.57" width="10.58" height="19.56" fill="#dc2626" opacity="0.82"/>
<line x1="438.33" y1="222.68" x2="438.33" y2="253.44" stroke="#16a34a" stroke-width="1.4"/>
<rect x="433.04" y="228.57" width="10.58" height="16.53" fill="#16a34a" opacity="0.82"/>
<line x1="457.22" y1="217.37" x2="457.22" y2="241.00" stroke="#16a34a" stroke-width="1.4"/>
<rect x="451.93" y="223.21" width="10.58" height="5.36" fill="#16a34a" opacity="0.82"/>
<line x1="476.11" y1="206.99" x2="476.11" y2="228.32" stroke="#16a34a" stroke-width="1.4"/>
<rect x="470.82" y="213.50" width="10.58" height="9.68" fill="#16a34a" opacity="0.82"/>
<line x1="495.00" y1="205.70" x2="495.00" y2="231.94" stroke="#dc2626" stroke-width="1.4"/>
<rect x="489.71" y="213.47" width="10.58" height="16.31" fill="#dc2626" opacity="0.82"/>
<line x1="513.89" y1="226.80" x2="513.89" y2="254.36" stroke="#dc2626" stroke-width="1.4"/>
<rect x="508.60" y="229.78" width="10.58" height="7.63" fill="#dc2626" opacity="0.82"/>
<line x1="532.78" y1="219.06" x2="532.78" y2="244.82" stroke="#16a34a" stroke-width="1.4"/>
<rect x="527.49" y="223.13" width="10.58" height="14.28" fill="#16a34a" opacity="0.82"/>
<line x1="551.67" y1="222.14" x2="551.67" y2="245.61" stroke="#dc2626" stroke-width="1.4"/>
<rect x="546.38" y="223.10" width="10.58" height="20.49" fill="#dc2626" opacity="0.82"/>
<line x1="570.56" y1="235.90" x2="570.56" y2="278.13" stroke="#dc2626" stroke-width="1.4"/>
<rect x="565.27" y="243.61" width="10.58" height="28.12" fill="#dc2626" opacity="0.82"/>
<line x1="589.44" y1="243.50" x2="589.44" y2="280.35" stroke="#16a34a" stroke-width="1.4"/>
<rect x="584.16" y="244.09" width="10.58" height="27.64" fill="#16a34a" opacity="0.82"/>
<line x1="608.33" y1="238.87" x2="608.33" y2="260.54" stroke="#dc2626" stroke-width="1.4"/>
<rect x="603.04" y="244.09" width="10.58" height="9.32" fill="#dc2626" opacity="0.82"/>
<line x1="627.22" y1="249.51" x2="627.22" y2="272.94" stroke="#dc2626" stroke-width="1.4"/>
<rect x="621.93" y="253.41" width="10.58" height="15.63" fill="#dc2626" opacity="0.82"/>
<line x1="646.11" y1="264.58" x2="646.11" y2="281.08" stroke="#16a34a" stroke-width="1.4"/>
<rect x="640.82" y="266.91" width="10.58" height="2.10" fill="#16a34a" opacity="0.82"/>
<line x1="665.00" y1="266.88" x2="665.00" y2="289.22" stroke="#dc2626" stroke-width="1.4"/>
<rect x="659.71" y="266.91" width="10.58" height="15.80" fill="#dc2626" opacity="0.82"/>
<line x1="683.89" y1="239.15" x2="683.89" y2="284.39" stroke="#16a34a" stroke-width="1.4"/>
<rect x="678.60" y="243.70" width="10.58" height="38.98" fill="#16a34a" opacity="0.82"/>
<line x1="702.78" y1="242.97" x2="702.78" y2="271.34" stroke="#dc2626" stroke-width="1.4"/>
<rect x="697.49" y="243.70" width="10.58" height="24.81" fill="#dc2626" opacity="0.82"/>
<line x1="721.67" y1="265.25" x2="721.67" y2="285.23" stroke="#dc2626" stroke-width="1.4"/>
<rect x="716.38" y="268.54" width="10.58" height="4.27" fill="#dc2626" opacity="0.82"/>
<line x1="740.56" y1="248.27" x2="740.56" y2="272.86" stroke="#16a34a" stroke-width="1.4"/>
<rect x="735.27" y="250.18" width="10.58" height="22.68" fill="#16a34a" opacity="0.82"/>
<line x1="70" y1="250.69" x2="750" y2="250.69" stroke="#2563eb" stroke-width="1.5" stroke-dasharray="4 4"/>
<text x="760" y="254.69" font-family="Arial" font-size="12" fill="#2563eb">Entry low 594.41</text>
<line x1="70" y1="245.17" x2="750" y2="245.17" stroke="#2563eb" stroke-width="1.5" stroke-dasharray="4 4"/>
<text x="760" y="249.17" font-family="Arial" font-size="12" fill="#2563eb">Entry high 596.37</text>
<line x1="70" y1="313.66" x2="750" y2="313.66" stroke="#dc2626" stroke-width="1.5"/>
<text x="760" y="317.66" font-family="Arial" font-size="12" fill="#dc2626">Stop 571.97</text>
<line x1="70" y1="116.47" x2="750" y2="116.47" stroke="#16a34a" stroke-width="1.5"/>
<text x="760" y="120.47" font-family="Arial" font-size="12" fill="#16a34a">TP1 642.23</text>
<line x1="70" y1="44.37" x2="750" y2="44.37" stroke="#15803d" stroke-width="1.5"/>
<text x="760" y="48.37" font-family="Arial" font-size="12" fill="#15803d">TP2 667.92</text>
<line x1="70" y1="250.18" x2="750" y2="250.18" stroke="#111827" stroke-width="1.5" stroke-dasharray="2 3"/>
<text x="760" y="254.18" font-family="Arial" font-size="12" fill="#111827">Last 594.59</text>
<text x="70" y="393" font-family="Arial" font-size="12" fill="#555">Candles: latest 36 x 4h Binance klines. Lines show entry zone, stop, TP1, TP2, and latest close.</text>
<text x="70" y="415" font-family="Arial" font-size="12" fill="#555">This chart is generated from locally fetched OHLCV, so you can compare it with Binance or TradingView manually.</text>
</svg>