<svg xmlns="http://www.w3.org/2000/svg" width="960" height="460" viewBox="0 0 960 460">
<rect width="100%" height="100%" fill="#ffffff"/>
<text x="70" y="22" font-family="Arial" font-size="16" font-weight="700">BNBUSDT 4h evidence chart</text>
<rect x="70" y="35" width="680" height="330" fill="#fafafa" stroke="#dddddd"/>
<line x1="70" y1="35.00" x2="750" y2="35.00" stroke="#eeeeee"/>
<text x="8" y="39.00" font-family="Arial" font-size="11" fill="#555">612.78</text>
<line x1="70" y1="117.50" x2="750" y2="117.50" stroke="#eeeeee"/>
<text x="8" y="121.50" font-family="Arial" font-size="11" fill="#555">597.71</text>
<line x1="70" y1="200.00" x2="750" y2="200.00" stroke="#eeeeee"/>
<text x="8" y="204.00" font-family="Arial" font-size="11" fill="#555">582.63</text>
<line x1="70" y1="282.50" x2="750" y2="282.50" stroke="#eeeeee"/>
<text x="8" y="286.50" font-family="Arial" font-size="11" fill="#555">567.55</text>
<line x1="70" y1="365.00" x2="750" y2="365.00" stroke="#eeeeee"/>
<text x="8" y="369.00" font-family="Arial" font-size="11" fill="#555">552.48</text>
<line x1="79.44" y1="254.07" x2="79.44" y2="268.79" stroke="#dc2626" stroke-width="1.4"/>
<rect x="74.16" y="264.41" width="10.58" height="1.50" fill="#dc2626" opacity="0.82"/>
<line x1="98.33" y1="255.44" x2="98.33" y2="270.98" stroke="#16a34a" stroke-width="1.4"/>
<rect x="93.04" y="265.56" width="10.58" height="1.50" fill="#16a34a" opacity="0.82"/>
<line x1="117.22" y1="254.84" x2="117.22" y2="276.23" stroke="#dc2626" stroke-width="1.4"/>
<rect x="111.93" y="265.51" width="10.58" height="8.26" fill="#dc2626" opacity="0.82"/>
<line x1="136.11" y1="270.87" x2="136.11" y2="283.84" stroke="#dc2626" stroke-width="1.4"/>
<rect x="130.82" y="273.77" width="10.58" height="1.50" fill="#dc2626" opacity="0.82"/>
<line x1="155.00" y1="269.12" x2="155.00" y2="284.82" stroke="#dc2626" stroke-width="1.4"/>
<rect x="149.71" y="274.32" width="10.58" height="5.69" fill="#dc2626" opacity="0.82"/>
<line x1="173.89" y1="263.87" x2="173.89" y2="285.54" stroke="#16a34a" stroke-width="1.4"/>
<rect x="168.60" y="268.24" width="10.58" height="11.76" fill="#16a34a" opacity="0.82"/>
<line x1="192.78" y1="266.55" x2="192.78" y2="289.20" stroke="#dc2626" stroke-width="1.4"/>
<rect x="187.49" y="268.24" width="10.58" height="11.00" fill="#dc2626" opacity="0.82"/>
<line x1="211.67" y1="259.54" x2="211.67" y2="280.06" stroke="#16a34a" stroke-width="1.4"/>
<rect x="206.38" y="263.32" width="10.58" height="15.87" fill="#16a34a" opacity="0.82"/>
<line x1="230.56" y1="247.56" x2="230.56" y2="278.80" stroke="#dc2626" stroke-width="1.4"/>
<rect x="225.27" y="263.32" width="10.58" height="5.09" fill="#dc2626" opacity="0.82"/>
<line x1="249.44" y1="267.86" x2="249.44" y2="307.59" stroke="#dc2626" stroke-width="1.4"/>
<rect x="244.16" y="268.41" width="10.58" height="18.82" fill="#dc2626" opacity="0.82"/>
<line x1="268.33" y1="261.29" x2="268.33" y2="300.04" stroke="#16a34a" stroke-width="1.4"/>
<rect x="263.04" y="263.59" width="10.58" height="23.58" fill="#16a34a" opacity="0.82"/>
<line x1="287.22" y1="243.95" x2="287.22" y2="296.48" stroke="#16a34a" stroke-width="1.4"/>
<rect x="281.93" y="247.72" width="10.58" height="15.81" fill="#16a34a" opacity="0.82"/>
<line x1="306.11" y1="236.78" x2="306.11" y2="263.37" stroke="#dc2626" stroke-width="1.4"/>
<rect x="300.82" y="247.67" width="10.58" height="14.34" fill="#dc2626" opacity="0.82"/>
<line x1="325.00" y1="252.92" x2="325.00" y2="269.89" stroke="#dc2626" stroke-width="1.4"/>
<rect x="319.71" y="262.01" width="10.58" height="1.50" fill="#dc2626" opacity="0.82"/>
<line x1="343.89" y1="239.73" x2="343.89" y2="265.02" stroke="#16a34a" stroke-width="1.4"/>
<rect x="338.60" y="240.39" width="10.58" height="21.72" fill="#16a34a" opacity="0.82"/>
<line x1="362.78" y1="231.03" x2="362.78" y2="248.54" stroke="#16a34a" stroke-width="1.4"/>
<rect x="357.49" y="231.64" width="10.58" height="8.76" fill="#16a34a" opacity="0.82"/>
<line x1="381.67" y1="215.55" x2="381.67" y2="235.30" stroke="#dc2626" stroke-width="1.4"/>
<rect x="376.38" y="231.58" width="10.58" height="1.50" fill="#dc2626" opacity="0.82"/>
<line x1="400.56" y1="225.34" x2="400.56" y2="244.60" stroke="#dc2626" stroke-width="1.4"/>
<rect x="395.27" y="232.62" width="10.58" height="8.21" fill="#dc2626" opacity="0.82"/>
<line x1="419.44" y1="238.48" x2="419.44" y2="257.35" stroke="#dc2626" stroke-width="1.4"/>
<rect x="414.16" y="240.83" width="10.58" height="13.24" fill="#dc2626" opacity="0.82"/>
<line x1="438.33" y1="246.36" x2="438.33" y2="259.21" stroke="#16a34a" stroke-width="1.4"/>
<rect x="433.04" y="247.50" width="10.58" height="6.62" fill="#16a34a" opacity="0.82"/>
<line x1="457.22" y1="238.31" x2="457.22" y2="264.19" stroke="#dc2626" stroke-width="1.4"/>
<rect x="451.93" y="247.45" width="10.58" height="15.76" fill="#dc2626" opacity="0.82"/>
<line x1="476.11" y1="255.00" x2="476.11" y2="286.14" stroke="#dc2626" stroke-width="1.4"/>
<rect x="470.82" y="263.26" width="10.58" height="15.32" fill="#dc2626" opacity="0.82"/>
<line x1="495.00" y1="259.43" x2="495.00" y2="279.08" stroke="#16a34a" stroke-width="1.4"/>
<rect x="489.71" y="263.81" width="10.58" height="14.77" fill="#16a34a" opacity="0.82"/>
<line x1="513.89" y1="240.39" x2="513.89" y2="272.57" stroke="#16a34a" stroke-width="1.4"/>
<rect x="508.60" y="255.44" width="10.58" height="8.37" fill="#16a34a" opacity="0.82"/>
<line x1="532.78" y1="239.02" x2="532.78" y2="274.70" stroke="#dc2626" stroke-width="1.4"/>
<rect x="527.49" y="255.44" width="10.58" height="12.80" fill="#dc2626" opacity="0.82"/>
<line x1="551.67" y1="257.19" x2="551.67" y2="272.51" stroke="#16a34a" stroke-width="1.4"/>
<rect x="546.38" y="263.21" width="10.58" height="5.03" fill="#16a34a" opacity="0.82"/>
<line x1="570.56" y1="256.86" x2="570.56" y2="271.20" stroke="#dc2626" stroke-width="1.4"/>
<rect x="565.27" y="263.15" width="10.58" height="3.89" fill="#dc2626" opacity="0.82"/>
<line x1="589.44" y1="265.62" x2="589.44" y2="278.80" stroke="#dc2626" stroke-width="1.4"/>
<rect x="584.16" y="267.04" width="10.58" height="3.06" fill="#dc2626" opacity="0.82"/>
<line x1="608.33" y1="260.86" x2="608.33" y2="275.08" stroke="#16a34a" stroke-width="1.4"/>
<rect x="603.04" y="269.17" width="10.58" height="1.50" fill="#16a34a" opacity="0.82"/>
<line x1="627.22" y1="267.59" x2="627.22" y2="303.54" stroke="#dc2626" stroke-width="1.4"/>
<rect x="621.93" y="269.12" width="10.58" height="12.80" fill="#dc2626" opacity="0.82"/>
<line x1="646.11" y1="281.21" x2="646.11" y2="296.42" stroke="#dc2626" stroke-width="1.4"/>
<rect x="640.82" y="281.92" width="10.58" height="5.58" fill="#dc2626" opacity="0.82"/>
<line x1="665.00" y1="275.69" x2="665.00" y2="290.24" stroke="#16a34a" stroke-width="1.4"/>
<rect x="659.71" y="283.29" width="10.58" height="4.21" fill="#16a34a" opacity="0.82"/>
<line x1="683.89" y1="266.98" x2="683.89" y2="291.45" stroke="#16a34a" stroke-width="1.4"/>
<rect x="678.60" y="273.77" width="10.58" height="9.52" fill="#16a34a" opacity="0.82"/>
<line x1="702.78" y1="261.95" x2="702.78" y2="286.57" stroke="#16a34a" stroke-width="1.4"/>
<rect x="697.49" y="271.86" width="10.58" height="1.92" fill="#16a34a" opacity="0.82"/>
<line x1="721.67" y1="271.14" x2="721.67" y2="295.49" stroke="#dc2626" stroke-width="1.4"/>
<rect x="716.38" y="271.80" width="10.58" height="13.84" fill="#dc2626" opacity="0.82"/>
<line x1="740.56" y1="285.59" x2="740.56" y2="291.66" stroke="#dc2626" stroke-width="1.4"/>
<rect x="735.27" y="285.64" width="10.58" height="5.91" fill="#dc2626" opacity="0.82"/>
<line x1="70" y1="297.37" x2="750" y2="297.37" stroke="#2563eb" stroke-width="1.5" stroke-dasharray="4 4"/>
<text x="760" y="301.37" font-family="Arial" font-size="12" fill="#2563eb">Entry low 564.84</text>
<line x1="70" y1="289.05" x2="750" y2="289.05" stroke="#2563eb" stroke-width="1.5" stroke-dasharray="4 4"/>
<text x="760" y="293.05" font-family="Arial" font-size="12" fill="#2563eb">Entry high 566.36</text>
<line x1="70" y1="349.81" x2="750" y2="349.81" stroke="#dc2626" stroke-width="1.5"/>
<text x="760" y="353.81" font-family="Arial" font-size="12" fill="#dc2626">Stop 555.25</text>
<line x1="70" y1="180.01" x2="750" y2="180.01" stroke="#16a34a" stroke-width="1.5"/>
<text x="760" y="184.01" font-family="Arial" font-size="12" fill="#16a34a">TP1 586.28</text>
<line x1="70" y1="51.68" x2="750" y2="51.68" stroke="#15803d" stroke-width="1.5"/>
<text x="760" y="55.68" font-family="Arial" font-size="12" fill="#15803d">TP2 609.74</text>
<line x1="70" y1="291.55" x2="750" y2="291.55" stroke="#111827" stroke-width="1.5" stroke-dasharray="2 3"/>
<text x="760" y="295.55" font-family="Arial" font-size="12" fill="#111827">Last 565.90</text>
<text x="70" y="393" font-family="Arial" font-size="12" fill="#555">Candles: latest 36 x 4h Binance klines. Lines show entry zone, stop, TP1, TP2, and latest close.</text>
<text x="70" y="415" font-family="Arial" font-size="12" fill="#555">This chart is generated from locally fetched OHLCV, so you can compare it with Binance or TradingView manually.</text>
</svg>