<svg xmlns="http://www.w3.org/2000/svg" width="960" height="460" viewBox="0 0 960 460">
<rect width="100%" height="100%" fill="#ffffff"/>
<text x="70" y="22" font-family="Arial" font-size="16" font-weight="700">HEIUSDT 4h evidence chart</text>
<rect x="70" y="35" width="680" height="330" fill="#fafafa" stroke="#dddddd"/>
<line x1="70" y1="35.00" x2="750" y2="35.00" stroke="#eeeeee"/>
<text x="8" y="39.00" font-family="Arial" font-size="11" fill="#555">0.40048</text>
<line x1="70" y1="117.50" x2="750" y2="117.50" stroke="#eeeeee"/>
<text x="8" y="121.50" font-family="Arial" font-size="11" fill="#555">0.32001</text>
<line x1="70" y1="200.00" x2="750" y2="200.00" stroke="#eeeeee"/>
<text x="8" y="204.00" font-family="Arial" font-size="11" fill="#555">0.23954</text>
<line x1="70" y1="282.50" x2="750" y2="282.50" stroke="#eeeeee"/>
<text x="8" y="286.50" font-family="Arial" font-size="11" fill="#555">0.15907</text>
<line x1="70" y1="365.00" x2="750" y2="365.00" stroke="#eeeeee"/>
<text x="8" y="369.00" font-family="Arial" font-size="11" fill="#555">0.07860</text>
<line x1="79.44" y1="361.72" x2="79.44" y2="364.39" stroke="#dc2626" stroke-width="1.4"/>
<rect x="74.16" y="362.13" width="10.58" height="1.50" fill="#dc2626" opacity="0.82"/>
<line x1="98.33" y1="361.52" x2="98.33" y2="363.36" stroke="#dc2626" stroke-width="1.4"/>
<rect x="93.04" y="362.65" width="10.58" height="1.50" fill="#dc2626" opacity="0.82"/>
<line x1="117.22" y1="362.24" x2="117.22" y2="364.60" stroke="#dc2626" stroke-width="1.4"/>
<rect x="111.93" y="363.36" width="10.58" height="1.50" fill="#dc2626" opacity="0.82"/>
<line x1="136.11" y1="362.75" x2="136.11" y2="364.08" stroke="#16a34a" stroke-width="1.4"/>
<rect x="130.82" y="363.16" width="10.58" height="1.50" fill="#16a34a" opacity="0.82"/>
<line x1="155.00" y1="362.95" x2="155.00" y2="364.60" stroke="#dc2626" stroke-width="1.4"/>
<rect x="149.71" y="363.16" width="10.58" height="1.50" fill="#dc2626" opacity="0.82"/>
<line x1="173.89" y1="361.72" x2="173.89" y2="364.39" stroke="#16a34a" stroke-width="1.4"/>
<rect x="168.60" y="362.95" width="10.58" height="1.50" fill="#16a34a" opacity="0.82"/>
<line x1="192.78" y1="360.49" x2="192.78" y2="362.95" stroke="#16a34a" stroke-width="1.4"/>
<rect x="187.49" y="362.24" width="10.58" height="1.50" fill="#16a34a" opacity="0.82"/>
<line x1="211.67" y1="360.90" x2="211.67" y2="362.54" stroke="#dc2626" stroke-width="1.4"/>
<rect x="206.38" y="362.13" width="10.58" height="1.50" fill="#dc2626" opacity="0.82"/>
<line x1="230.56" y1="357.62" x2="230.56" y2="362.75" stroke="#16a34a" stroke-width="1.4"/>
<rect x="225.27" y="360.49" width="10.58" height="1.74" fill="#16a34a" opacity="0.82"/>
<line x1="249.44" y1="359.16" x2="249.44" y2="362.13" stroke="#dc2626" stroke-width="1.4"/>
<rect x="244.16" y="360.49" width="10.58" height="1.54" fill="#dc2626" opacity="0.82"/>
<line x1="268.33" y1="361.11" x2="268.33" y2="362.75" stroke="#16a34a" stroke-width="1.4"/>
<rect x="263.04" y="362.03" width="10.58" height="1.50" fill="#16a34a" opacity="0.82"/>
<line x1="287.22" y1="360.90" x2="287.22" y2="362.44" stroke="#dc2626" stroke-width="1.4"/>
<rect x="281.93" y="362.03" width="10.58" height="1.50" fill="#dc2626" opacity="0.82"/>
<line x1="306.11" y1="346.45" x2="306.11" y2="362.65" stroke="#16a34a" stroke-width="1.4"/>
<rect x="300.82" y="347.06" width="10.58" height="15.17" fill="#16a34a" opacity="0.82"/>
<line x1="325.00" y1="341.73" x2="325.00" y2="355.88" stroke="#dc2626" stroke-width="1.4"/>
<rect x="319.71" y="347.06" width="10.58" height="7.79" fill="#dc2626" opacity="0.82"/>
<line x1="343.89" y1="354.65" x2="343.89" y2="361.72" stroke="#dc2626" stroke-width="1.4"/>
<rect x="338.60" y="354.75" width="10.58" height="5.74" fill="#dc2626" opacity="0.82"/>
<line x1="362.78" y1="358.65" x2="362.78" y2="361.42" stroke="#16a34a" stroke-width="1.4"/>
<rect x="357.49" y="358.96" width="10.58" height="1.74" fill="#16a34a" opacity="0.82"/>
<line x1="381.67" y1="356.70" x2="381.67" y2="360.39" stroke="#dc2626" stroke-width="1.4"/>
<rect x="376.38" y="359.16" width="10.58" height="1.50" fill="#dc2626" opacity="0.82"/>
<line x1="400.56" y1="359.37" x2="400.56" y2="362.44" stroke="#dc2626" stroke-width="1.4"/>
<rect x="395.27" y="360.08" width="10.58" height="1.50" fill="#dc2626" opacity="0.82"/>
<line x1="419.44" y1="360.29" x2="419.44" y2="361.21" stroke="#dc2626" stroke-width="1.4"/>
<rect x="414.16" y="361.01" width="10.58" height="1.50" fill="#dc2626" opacity="0.82"/>
<line x1="438.33" y1="360.60" x2="438.33" y2="362.75" stroke="#dc2626" stroke-width="1.4"/>
<rect x="433.04" y="361.01" width="10.58" height="1.50" fill="#dc2626" opacity="0.82"/>
<line x1="457.22" y1="359.57" x2="457.22" y2="362.75" stroke="#16a34a" stroke-width="1.4"/>
<rect x="451.93" y="359.88" width="10.58" height="2.46" fill="#16a34a" opacity="0.82"/>
<line x1="476.11" y1="357.21" x2="476.11" y2="360.70" stroke="#16a34a" stroke-width="1.4"/>
<rect x="470.82" y="357.83" width="10.58" height="2.15" fill="#16a34a" opacity="0.82"/>
<line x1="495.00" y1="356.29" x2="495.00" y2="358.96" stroke="#16a34a" stroke-width="1.4"/>
<rect x="489.71" y="357.73" width="10.58" height="1.50" fill="#16a34a" opacity="0.82"/>
<line x1="513.89" y1="355.98" x2="513.89" y2="358.75" stroke="#dc2626" stroke-width="1.4"/>
<rect x="508.60" y="357.62" width="10.58" height="1.50" fill="#dc2626" opacity="0.82"/>
<line x1="532.78" y1="356.39" x2="532.78" y2="358.44" stroke="#dc2626" stroke-width="1.4"/>
<rect x="527.49" y="357.83" width="10.58" height="1.50" fill="#dc2626" opacity="0.82"/>
<line x1="551.67" y1="356.19" x2="551.67" y2="358.14" stroke="#16a34a" stroke-width="1.4"/>
<rect x="546.38" y="356.50" width="10.58" height="1.54" fill="#16a34a" opacity="0.82"/>
<line x1="570.56" y1="355.88" x2="570.56" y2="357.62" stroke="#dc2626" stroke-width="1.4"/>
<rect x="565.27" y="356.39" width="10.58" height="1.50" fill="#dc2626" opacity="0.82"/>
<line x1="589.44" y1="354.03" x2="589.44" y2="357.21" stroke="#16a34a" stroke-width="1.4"/>
<rect x="584.16" y="354.96" width="10.58" height="1.95" fill="#16a34a" opacity="0.82"/>
<line x1="608.33" y1="352.70" x2="608.33" y2="355.98" stroke="#16a34a" stroke-width="1.4"/>
<rect x="603.04" y="353.62" width="10.58" height="1.50" fill="#16a34a" opacity="0.82"/>
<line x1="627.22" y1="344.60" x2="627.22" y2="354.65" stroke="#16a34a" stroke-width="1.4"/>
<rect x="621.93" y="346.24" width="10.58" height="7.38" fill="#16a34a" opacity="0.82"/>
<line x1="646.11" y1="318.97" x2="646.11" y2="347.99" stroke="#16a34a" stroke-width="1.4"/>
<rect x="640.82" y="324.51" width="10.58" height="21.63" fill="#16a34a" opacity="0.82"/>
<line x1="665.00" y1="310.77" x2="665.00" y2="326.25" stroke="#16a34a" stroke-width="1.4"/>
<rect x="659.71" y="313.03" width="10.58" height="11.48" fill="#16a34a" opacity="0.82"/>
<line x1="683.89" y1="254.07" x2="683.89" y2="315.49" stroke="#16a34a" stroke-width="1.4"/>
<rect x="678.60" y="262.58" width="10.58" height="50.54" fill="#16a34a" opacity="0.82"/>
<line x1="702.78" y1="245.67" x2="702.78" y2="304.82" stroke="#dc2626" stroke-width="1.4"/>
<rect x="697.49" y="262.58" width="10.58" height="36.81" fill="#dc2626" opacity="0.82"/>
<line x1="721.67" y1="253.05" x2="721.67" y2="305.95" stroke="#16a34a" stroke-width="1.4"/>
<rect x="716.38" y="256.02" width="10.58" height="43.27" fill="#16a34a" opacity="0.82"/>
<line x1="740.56" y1="234.08" x2="740.56" y2="260.12" stroke="#dc2626" stroke-width="1.4"/>
<rect x="735.27" y="256.12" width="10.58" height="2.67" fill="#dc2626" opacity="0.82"/>
<line x1="70" y1="291.47" x2="750" y2="291.47" stroke="#2563eb" stroke-width="1.5" stroke-dasharray="4 4"/>
<text x="760" y="295.47" font-family="Arial" font-size="12" fill="#2563eb">Entry low 0.15032</text>
<line x1="70" y1="273.04" x2="750" y2="273.04" stroke="#2563eb" stroke-width="1.5" stroke-dasharray="4 4"/>
<text x="760" y="277.04" font-family="Arial" font-size="12" fill="#2563eb">Entry high 0.16830</text>
<line x1="70" y1="363.99" x2="750" y2="363.99" stroke="#dc2626" stroke-width="1.5"/>
<text x="760" y="367.99" font-family="Arial" font-size="12" fill="#dc2626">Stop 0.07959</text>
<line x1="70" y1="118.78" x2="750" y2="118.78" stroke="#16a34a" stroke-width="1.5"/>
<text x="760" y="122.78" font-family="Arial" font-size="12" fill="#16a34a">TP1 0.31876</text>
<line x1="70" y1="37.04" x2="750" y2="37.04" stroke="#15803d" stroke-width="1.5"/>
<text x="760" y="41.04" font-family="Arial" font-size="12" fill="#15803d">TP2 0.39849</text>
<line x1="70" y1="258.48" x2="750" y2="258.48" stroke="#111827" stroke-width="1.5" stroke-dasharray="2 3"/>
<text x="760" y="262.48" font-family="Arial" font-size="12" fill="#111827">Last 0.18250</text>
<text x="70" y="393" font-family="Arial" font-size="12" fill="#555">Candles: latest 36 x 4h Binance klines. Lines show entry zone, stop, TP1, TP2, and latest close.</text>
<text x="70" y="415" font-family="Arial" font-size="12" fill="#555">This chart is generated from locally fetched OHLCV, so you can compare it with Binance or TradingView manually.</text>
</svg>