<svg xmlns="http://www.w3.org/2000/svg" width="960" height="460" viewBox="0 0 960 460">
<rect width="100%" height="100%" fill="#ffffff"/>
<text x="70" y="22" font-family="Arial" font-size="16" font-weight="700">BTCUSDT 4h evidence chart</text>
<rect x="70" y="35" width="680" height="330" fill="#fafafa" stroke="#dddddd"/>
<line x1="70" y1="35.00" x2="750" y2="35.00" stroke="#eeeeee"/>
<text x="8" y="39.00" font-family="Arial" font-size="11" fill="#555">67,735.11</text>
<line x1="70" y1="117.50" x2="750" y2="117.50" stroke="#eeeeee"/>
<text x="8" y="121.50" font-family="Arial" font-size="11" fill="#555">66,123.64</text>
<line x1="70" y1="200.00" x2="750" y2="200.00" stroke="#eeeeee"/>
<text x="8" y="204.00" font-family="Arial" font-size="11" fill="#555">64,512.17</text>
<line x1="70" y1="282.50" x2="750" y2="282.50" stroke="#eeeeee"/>
<text x="8" y="286.50" font-family="Arial" font-size="11" fill="#555">62,900.70</text>
<line x1="70" y1="365.00" x2="750" y2="365.00" stroke="#eeeeee"/>
<text x="8" y="369.00" font-family="Arial" font-size="11" fill="#555">61,289.23</text>
<line x1="79.44" y1="208.10" x2="79.44" y2="236.14" stroke="#dc2626" stroke-width="1.4"/>
<rect x="74.16" y="210.86" width="10.58" height="13.02" fill="#dc2626" opacity="0.82"/>
<line x1="98.33" y1="215.20" x2="98.33" y2="230.28" stroke="#dc2626" stroke-width="1.4"/>
<rect x="93.04" y="223.88" width="10.58" height="3.87" fill="#dc2626" opacity="0.82"/>
<line x1="117.22" y1="217.21" x2="117.22" y2="231.56" stroke="#16a34a" stroke-width="1.4"/>
<rect x="111.93" y="218.28" width="10.58" height="9.47" fill="#16a34a" opacity="0.82"/>
<line x1="136.11" y1="218.05" x2="136.11" y2="233.80" stroke="#dc2626" stroke-width="1.4"/>
<rect x="130.82" y="218.29" width="10.58" height="4.56" fill="#dc2626" opacity="0.82"/>
<line x1="155.00" y1="205.74" x2="155.00" y2="223.93" stroke="#16a34a" stroke-width="1.4"/>
<rect x="149.71" y="206.28" width="10.58" height="16.57" fill="#16a34a" opacity="0.82"/>
<line x1="173.89" y1="199.83" x2="173.89" y2="254.33" stroke="#dc2626" stroke-width="1.4"/>
<rect x="168.60" y="206.28" width="10.58" height="39.92" fill="#dc2626" opacity="0.82"/>
<line x1="192.78" y1="243.63" x2="192.78" y2="265.23" stroke="#dc2626" stroke-width="1.4"/>
<rect x="187.49" y="246.19" width="10.58" height="3.78" fill="#dc2626" opacity="0.82"/>
<line x1="211.67" y1="238.07" x2="211.67" y2="249.98" stroke="#16a34a" stroke-width="1.4"/>
<rect x="206.38" y="246.70" width="10.58" height="3.28" fill="#16a34a" opacity="0.82"/>
<line x1="230.56" y1="230.93" x2="230.56" y2="250.08" stroke="#16a34a" stroke-width="1.4"/>
<rect x="225.27" y="234.64" width="10.58" height="12.06" fill="#16a34a" opacity="0.82"/>
<line x1="249.44" y1="231.78" x2="249.44" y2="246.38" stroke="#16a34a" stroke-width="1.4"/>
<rect x="244.16" y="234.51" width="10.58" height="1.50" fill="#16a34a" opacity="0.82"/>
<line x1="268.33" y1="213.45" x2="268.33" y2="238.10" stroke="#16a34a" stroke-width="1.4"/>
<rect x="263.04" y="213.93" width="10.58" height="20.58" fill="#16a34a" opacity="0.82"/>
<line x1="287.22" y1="200.62" x2="287.22" y2="261.24" stroke="#dc2626" stroke-width="1.4"/>
<rect x="281.93" y="213.93" width="10.58" height="40.88" fill="#dc2626" opacity="0.82"/>
<line x1="306.11" y1="247.83" x2="306.11" y2="261.53" stroke="#dc2626" stroke-width="1.4"/>
<rect x="300.82" y="254.81" width="10.58" height="1.50" fill="#dc2626" opacity="0.82"/>
<line x1="325.00" y1="243.56" x2="325.00" y2="258.47" stroke="#16a34a" stroke-width="1.4"/>
<rect x="319.71" y="252.84" width="10.58" height="3.01" fill="#16a34a" opacity="0.82"/>
<line x1="343.89" y1="240.69" x2="343.89" y2="257.96" stroke="#16a34a" stroke-width="1.4"/>
<rect x="338.60" y="244.29" width="10.58" height="8.55" fill="#16a34a" opacity="0.82"/>
<line x1="362.78" y1="225.71" x2="362.78" y2="247.13" stroke="#16a34a" stroke-width="1.4"/>
<rect x="357.49" y="233.09" width="10.58" height="11.20" fill="#16a34a" opacity="0.82"/>
<line x1="381.67" y1="230.57" x2="381.67" y2="259.50" stroke="#dc2626" stroke-width="1.4"/>
<rect x="376.38" y="233.09" width="10.58" height="19.53" fill="#dc2626" opacity="0.82"/>
<line x1="400.56" y1="226.27" x2="400.56" y2="255.91" stroke="#dc2626" stroke-width="1.4"/>
<rect x="395.27" y="252.62" width="10.58" height="3.29" fill="#dc2626" opacity="0.82"/>
<line x1="419.44" y1="248.29" x2="419.44" y2="287.54" stroke="#dc2626" stroke-width="1.4"/>
<rect x="414.16" y="255.91" width="10.58" height="1.50" fill="#dc2626" opacity="0.82"/>
<line x1="438.33" y1="244.65" x2="438.33" y2="258.58" stroke="#16a34a" stroke-width="1.4"/>
<rect x="433.04" y="252.29" width="10.58" height="4.24" fill="#16a34a" opacity="0.82"/>
<line x1="457.22" y1="245.81" x2="457.22" y2="261.98" stroke="#dc2626" stroke-width="1.4"/>
<rect x="451.93" y="252.29" width="10.58" height="9.26" fill="#dc2626" opacity="0.82"/>
<line x1="476.11" y1="253.23" x2="476.11" y2="281.51" stroke="#dc2626" stroke-width="1.4"/>
<rect x="470.82" y="261.55" width="10.58" height="19.93" fill="#dc2626" opacity="0.82"/>
<line x1="495.00" y1="277.53" x2="495.00" y2="292.77" stroke="#dc2626" stroke-width="1.4"/>
<rect x="489.71" y="281.47" width="10.58" height="2.66" fill="#dc2626" opacity="0.82"/>
<line x1="513.89" y1="272.85" x2="513.89" y2="301.21" stroke="#16a34a" stroke-width="1.4"/>
<rect x="508.60" y="277.88" width="10.58" height="6.25" fill="#16a34a" opacity="0.82"/>
<line x1="532.78" y1="264.77" x2="532.78" y2="286.12" stroke="#dc2626" stroke-width="1.4"/>
<rect x="527.49" y="277.88" width="10.58" height="1.50" fill="#dc2626" opacity="0.82"/>
<line x1="551.67" y1="274.03" x2="551.67" y2="287.66" stroke="#16a34a" stroke-width="1.4"/>
<rect x="546.38" y="275.19" width="10.58" height="3.87" fill="#16a34a" opacity="0.82"/>
<line x1="570.56" y1="267.79" x2="570.56" y2="277.78" stroke="#16a34a" stroke-width="1.4"/>
<rect x="565.27" y="274.79" width="10.58" height="1.50" fill="#16a34a" opacity="0.82"/>
<line x1="589.44" y1="269.44" x2="589.44" y2="275.99" stroke="#16a34a" stroke-width="1.4"/>
<rect x="584.16" y="273.55" width="10.58" height="1.50" fill="#16a34a" opacity="0.82"/>
<line x1="608.33" y1="273.02" x2="608.33" y2="281.51" stroke="#dc2626" stroke-width="1.4"/>
<rect x="603.04" y="273.55" width="10.58" height="2.73" fill="#dc2626" opacity="0.82"/>
<line x1="627.22" y1="271.27" x2="627.22" y2="280.15" stroke="#16a34a" stroke-width="1.4"/>
<rect x="621.93" y="272.27" width="10.58" height="4.02" fill="#16a34a" opacity="0.82"/>
<line x1="646.11" y1="270.89" x2="646.11" y2="275.14" stroke="#16a34a" stroke-width="1.4"/>
<rect x="640.82" y="270.96" width="10.58" height="1.50" fill="#16a34a" opacity="0.82"/>
<line x1="665.00" y1="268.46" x2="665.00" y2="273.48" stroke="#dc2626" stroke-width="1.4"/>
<rect x="659.71" y="270.96" width="10.58" height="2.05" fill="#dc2626" opacity="0.82"/>
<line x1="683.89" y1="269.66" x2="683.89" y2="276.80" stroke="#16a34a" stroke-width="1.4"/>
<rect x="678.60" y="270.76" width="10.58" height="2.25" fill="#16a34a" opacity="0.82"/>
<line x1="702.78" y1="269.29" x2="702.78" y2="275.37" stroke="#dc2626" stroke-width="1.4"/>
<rect x="697.49" y="270.76" width="10.58" height="3.53" fill="#dc2626" opacity="0.82"/>
<line x1="721.67" y1="273.33" x2="721.67" y2="279.03" stroke="#dc2626" stroke-width="1.4"/>
<rect x="716.38" y="274.29" width="10.58" height="2.43" fill="#dc2626" opacity="0.82"/>
<line x1="740.56" y1="276.11" x2="740.56" y2="276.72" stroke="#16a34a" stroke-width="1.4"/>
<rect x="735.27" y="276.12" width="10.58" height="1.50" fill="#16a34a" opacity="0.82"/>
<line x1="70" y1="294.81" x2="750" y2="294.81" stroke="#2563eb" stroke-width="1.5" stroke-dasharray="4 4"/>
<text x="760" y="298.81" font-family="Arial" font-size="12" fill="#2563eb">Entry low 62,660.31</text>
<line x1="70" y1="294.15" x2="750" y2="294.15" stroke="#2563eb" stroke-width="1.5" stroke-dasharray="4 4"/>
<text x="760" y="298.15" font-family="Arial" font-size="12" fill="#2563eb">Entry high 62,673.23</text>
<line x1="70" y1="349.23" x2="750" y2="349.23" stroke="#dc2626" stroke-width="1.5"/>
<text x="760" y="353.23" font-family="Arial" font-size="12" fill="#dc2626">Stop 61,597.21</text>
<line x1="70" y1="184.96" x2="750" y2="184.96" stroke="#16a34a" stroke-width="1.5"/>
<text x="760" y="188.96" font-family="Arial" font-size="12" fill="#16a34a">TP1 64,805.88</text>
<line x1="70" y1="52.25" x2="750" y2="52.25" stroke="#15803d" stroke-width="1.5"/>
<text x="760" y="56.25" font-family="Arial" font-size="12" fill="#15803d">TP2 67,398.12</text>
<line x1="70" y1="276.12" x2="750" y2="276.12" stroke="#111827" stroke-width="1.5" stroke-dasharray="2 3"/>
<text x="760" y="280.12" font-family="Arial" font-size="12" fill="#111827">Last 63,025.41</text>
<text x="70" y="393" font-family="Arial" font-size="12" fill="#555">Candles: latest 36 x 4h Binance klines. Lines show entry zone, stop, TP1, TP2, and latest close.</text>
<text x="70" y="415" font-family="Arial" font-size="12" fill="#555">This chart is generated from locally fetched OHLCV, so you can compare it with Binance or TradingView manually.</text>
</svg>